M48
; DRILL file {KiCad 5.1.6~rc1+dfsg1-1} date Sat Apr 25 08:39:37 2020
; FORMAT={-:-/ absolute / inch / decimal}
; #@! TF.CreationDate,2020-04-25T08:39:37-07:00
; #@! TF.GenerationSoftware,Kicad,Pcbnew,5.1.6~rc1+dfsg1-1
; #@! TF.FileFunction,Plated,1,2,PTH
FMAT,2
INCH
T1C0.0236
T2C0.0295
T3C0.0315
T4C0.0394
T5C0.0433
%
G90
G05
T1
X1.8Y-1.2
X1.8787Y-1.2
X1.8Y-1.45
X1.8787Y-1.45
T2
X1.2Y-1.575
X1.2Y-1.625
X1.2Y-1.675
X0.875Y-1.1
X0.925Y-1.1
X0.975Y-1.1
X1.5Y-1.575
X1.5Y-1.625
X1.5Y-1.675
T3
X1.2Y-1.225
X1.6Y-1.225
X2.05Y-1.175
X2.05Y-1.575
X0.7Y-1.875
X1.1Y-1.875
X1.575Y-0.7
X1.575Y-1.0
X1.675Y-0.7
X1.675Y-1.0
X1.775Y-0.7
X1.775Y-1.0
X1.875Y-0.7
X1.875Y-1.0
X2.05Y-1.7
X2.05Y-2.1
X1.075Y-2.225
X1.475Y-2.225
X1.375Y-0.65
X1.375Y-1.05
X1.875Y-1.7
X1.875Y-2.1
X1.2Y-1.4
X1.6Y-1.4
X0.8016Y-1.3
X0.9Y-1.3
X1.725Y-1.7
X1.725Y-2.1
X1.075Y-2.05
X1.475Y-2.05
T4
X0.7Y-2.05
X0.7Y-2.15
X0.7Y-2.25
X0.7Y-0.7
X0.7Y-0.8
X1.05Y-0.7372
X1.05Y-0.875
T5
X0.7Y-1.65
X0.8Y-1.65
X0.9Y-1.65
T0
M30
