%TF.GenerationSoftware,KiCad,Pcbnew,5.1.6~rc1+dfsg1-1*%
%TF.CreationDate,2020-04-25T08:26:20-07:00*%
%TF.ProjectId,Radio-Power,52616469-6f2d-4506-9f77-65722e6b6963,rev?*%
%TF.SameCoordinates,Original*%
%TF.FileFunction,Soldermask,Top*%
%TF.FilePolarity,Negative*%
%FSLAX46Y46*%
G04 Gerber Fmt 4.6, Leading zero omitted, Abs format (unit mm)*
G04 Created by KiCad (PCBNEW 5.1.6~rc1+dfsg1-1) date 2020-04-25 08:26:20*
%MOMM*%
%LPD*%
G01*
G04 APERTURE LIST*
%ADD10R,1.150000X1.600000*%
%ADD11O,1.150000X1.600000*%
%ADD12C,1.300000*%
%ADD13R,1.300000X1.300000*%
%ADD14O,1.700000X1.700000*%
%ADD15C,1.700000*%
%ADD16R,1.700000X1.700000*%
%ADD17O,2.005000X2.100000*%
%ADD18R,2.005000X2.100000*%
%ADD19O,1.800000X1.800000*%
%ADD20R,1.800000X1.800000*%
%ADD21C,2.100000*%
%ADD22R,2.100000X2.100000*%
%ADD23R,1.600000X1.150000*%
%ADD24O,1.600000X1.150000*%
G04 APERTURE END LIST*
D10*
%TO.C,U1*%
X23495000Y-33020000D03*
D11*
X20955000Y-33020000D03*
X22225000Y-33020000D03*
%TD*%
D12*
%TO.C,C3*%
X47720000Y-36830000D03*
D13*
X45720000Y-36830000D03*
%TD*%
D12*
%TO.C,C1*%
X47720000Y-30480000D03*
D13*
X45720000Y-30480000D03*
%TD*%
D14*
%TO.C,R10*%
X17780000Y-47625000D03*
D15*
X27940000Y-47625000D03*
%TD*%
D14*
%TO.C,U2*%
X40005000Y-17780000D03*
X47625000Y-25400000D03*
X42545000Y-17780000D03*
X45085000Y-25400000D03*
X45085000Y-17780000D03*
X42545000Y-25400000D03*
X47625000Y-17780000D03*
D16*
X40005000Y-25400000D03*
%TD*%
D17*
%TO.C,Q2*%
X17780000Y-41910000D03*
X20320000Y-41910000D03*
D18*
X22860000Y-41910000D03*
%TD*%
D14*
%TO.C,R9*%
X34925000Y-16510000D03*
D15*
X34925000Y-26670000D03*
%TD*%
D14*
%TO.C,R8*%
X52070000Y-29845000D03*
D15*
X52070000Y-40005000D03*
%TD*%
D14*
%TO.C,R7*%
X47625000Y-53340000D03*
D15*
X47625000Y-43180000D03*
%TD*%
D14*
%TO.C,R6*%
X52070000Y-53340000D03*
D15*
X52070000Y-43180000D03*
%TD*%
D14*
%TO.C,R5*%
X43815000Y-53340000D03*
D15*
X43815000Y-43180000D03*
%TD*%
D14*
%TO.C,R4*%
X30480000Y-31115000D03*
D15*
X40640000Y-31115000D03*
%TD*%
D14*
%TO.C,R3*%
X40640000Y-35560000D03*
D15*
X30480000Y-35560000D03*
%TD*%
D14*
%TO.C,R2*%
X27305000Y-56515000D03*
D15*
X37465000Y-56515000D03*
%TD*%
D14*
%TO.C,R1*%
X27305000Y-52070000D03*
D15*
X37465000Y-52070000D03*
%TD*%
D19*
%TO.C,J2*%
X17780000Y-20320000D03*
D20*
X17780000Y-17780000D03*
%TD*%
D19*
%TO.C,J1*%
X17780000Y-52070000D03*
X17780000Y-54610000D03*
D20*
X17780000Y-57150000D03*
%TD*%
D21*
%TO.C,C2*%
X26670000Y-18725000D03*
D22*
X26670000Y-22225000D03*
%TD*%
D23*
%TO.C,Q3*%
X30480000Y-42545000D03*
D24*
X30480000Y-40005000D03*
X30480000Y-41275000D03*
%TD*%
D23*
%TO.C,Q1*%
X38100000Y-42545000D03*
D24*
X38100000Y-40005000D03*
X38100000Y-41275000D03*
%TD*%
M02*
