%TF.GenerationSoftware,KiCad,Pcbnew,5.1.6~rc1+dfsg1-1*%
%TF.CreationDate,2020-04-23T19:24:36-07:00*%
%TF.ProjectId,Radio-Power,52616469-6f2d-4506-9f77-65722e6b6963,rev?*%
%TF.SameCoordinates,Original*%
%TF.FileFunction,Legend,Top*%
%TF.FilePolarity,Positive*%
%FSLAX46Y46*%
G04 Gerber Fmt 4.6, Leading zero omitted, Abs format (unit mm)*
G04 Created by KiCad (PCBNEW 5.1.6~rc1+dfsg1-1) date 2020-04-23 19:24:36*
%MOMM*%
%LPD*%
G01*
G04 APERTURE LIST*
%ADD10C,0.120000*%
%ADD11C,0.150000*%
G04 APERTURE END LIST*
D10*
%TO.C,R10*%
X20725000Y-42545000D02*
X21495000Y-42545000D01*
X28805000Y-42545000D02*
X28035000Y-42545000D01*
X21495000Y-43915000D02*
X28035000Y-43915000D01*
X21495000Y-41175000D02*
X21495000Y-43915000D01*
X28035000Y-41175000D02*
X21495000Y-41175000D01*
X28035000Y-43915000D02*
X28035000Y-41175000D01*
%TO.C,U2*%
X55515000Y-36135000D02*
X53865000Y-36135000D01*
X53865000Y-36135000D02*
X53865000Y-46415000D01*
X53865000Y-46415000D02*
X59165000Y-46415000D01*
X59165000Y-46415000D02*
X59165000Y-36135000D01*
X59165000Y-36135000D02*
X57515000Y-36135000D01*
X57515000Y-36135000D02*
G75*
G02*
X55515000Y-36135000I-1000000J0D01*
G01*
%TO.C,Q2*%
X34330000Y-38830000D02*
X24090000Y-38830000D01*
X34330000Y-34189000D02*
X24090000Y-34189000D01*
X34330000Y-38830000D02*
X34330000Y-34189000D01*
X24090000Y-38830000D02*
X24090000Y-34189000D01*
X34330000Y-37320000D02*
X24090000Y-37320000D01*
X31060000Y-38830000D02*
X31060000Y-37320000D01*
X27359000Y-38830000D02*
X27359000Y-37320000D01*
%TO.C,R9*%
X53245000Y-29745000D02*
X53245000Y-32485000D01*
X53245000Y-32485000D02*
X59785000Y-32485000D01*
X59785000Y-32485000D02*
X59785000Y-29745000D01*
X59785000Y-29745000D02*
X53245000Y-29745000D01*
X52475000Y-31115000D02*
X53245000Y-31115000D01*
X60555000Y-31115000D02*
X59785000Y-31115000D01*
%TO.C,R8*%
X53245000Y-50065000D02*
X53245000Y-52805000D01*
X53245000Y-52805000D02*
X59785000Y-52805000D01*
X59785000Y-52805000D02*
X59785000Y-50065000D01*
X59785000Y-50065000D02*
X53245000Y-50065000D01*
X52475000Y-51435000D02*
X53245000Y-51435000D01*
X60555000Y-51435000D02*
X59785000Y-51435000D01*
%TO.C,R7*%
X45620000Y-40100000D02*
X48360000Y-40100000D01*
X48360000Y-40100000D02*
X48360000Y-33560000D01*
X48360000Y-33560000D02*
X45620000Y-33560000D01*
X45620000Y-33560000D02*
X45620000Y-40100000D01*
X46990000Y-40870000D02*
X46990000Y-40100000D01*
X46990000Y-32790000D02*
X46990000Y-33560000D01*
%TO.C,R6*%
X39910000Y-50065000D02*
X39910000Y-52805000D01*
X39910000Y-52805000D02*
X46450000Y-52805000D01*
X46450000Y-52805000D02*
X46450000Y-50065000D01*
X46450000Y-50065000D02*
X39910000Y-50065000D01*
X39140000Y-51435000D02*
X39910000Y-51435000D01*
X47220000Y-51435000D02*
X46450000Y-51435000D01*
%TO.C,R5*%
X41810000Y-40100000D02*
X44550000Y-40100000D01*
X44550000Y-40100000D02*
X44550000Y-33560000D01*
X44550000Y-33560000D02*
X41810000Y-33560000D01*
X41810000Y-33560000D02*
X41810000Y-40100000D01*
X43180000Y-40870000D02*
X43180000Y-40100000D01*
X43180000Y-32790000D02*
X43180000Y-33560000D01*
%TO.C,R4*%
X40740000Y-33560000D02*
X38000000Y-33560000D01*
X38000000Y-33560000D02*
X38000000Y-40100000D01*
X38000000Y-40100000D02*
X40740000Y-40100000D01*
X40740000Y-40100000D02*
X40740000Y-33560000D01*
X39370000Y-32790000D02*
X39370000Y-33560000D01*
X39370000Y-40870000D02*
X39370000Y-40100000D01*
%TO.C,R3*%
X39910000Y-53875000D02*
X39910000Y-56615000D01*
X39910000Y-56615000D02*
X46450000Y-56615000D01*
X46450000Y-56615000D02*
X46450000Y-53875000D01*
X46450000Y-53875000D02*
X39910000Y-53875000D01*
X39140000Y-55245000D02*
X39910000Y-55245000D01*
X47220000Y-55245000D02*
X46450000Y-55245000D01*
%TO.C,R2*%
X32480000Y-56615000D02*
X32480000Y-53875000D01*
X32480000Y-53875000D02*
X25940000Y-53875000D01*
X25940000Y-53875000D02*
X25940000Y-56615000D01*
X25940000Y-56615000D02*
X32480000Y-56615000D01*
X33250000Y-55245000D02*
X32480000Y-55245000D01*
X25170000Y-55245000D02*
X25940000Y-55245000D01*
%TO.C,R1*%
X32480000Y-52170000D02*
X32480000Y-49430000D01*
X32480000Y-49430000D02*
X25940000Y-49430000D01*
X25940000Y-49430000D02*
X25940000Y-52170000D01*
X25940000Y-52170000D02*
X32480000Y-52170000D01*
X33250000Y-50800000D02*
X32480000Y-50800000D01*
X25170000Y-50800000D02*
X25940000Y-50800000D01*
%TO.C,J2*%
X20380000Y-33595000D02*
X17720000Y-33595000D01*
X20380000Y-36195000D02*
X20380000Y-33595000D01*
X17720000Y-36195000D02*
X17720000Y-33595000D01*
X20380000Y-36195000D02*
X17720000Y-36195000D01*
X20380000Y-37465000D02*
X20380000Y-38795000D01*
X20380000Y-38795000D02*
X19050000Y-38795000D01*
%TO.C,J1*%
X20380000Y-48835000D02*
X17720000Y-48835000D01*
X20380000Y-53975000D02*
X20380000Y-48835000D01*
X17720000Y-53975000D02*
X17720000Y-48835000D01*
X20380000Y-53975000D02*
X17720000Y-53975000D01*
X20380000Y-55245000D02*
X20380000Y-56575000D01*
X20380000Y-56575000D02*
X19050000Y-56575000D01*
%TO.C,C2*%
X59885000Y-22860000D02*
G75*
G03*
X59885000Y-22860000I-5120000J0D01*
G01*
X54765000Y-27940000D02*
X54765000Y-17780000D01*
X54725000Y-27940000D02*
X54725000Y-17780000D01*
X54685000Y-27940000D02*
X54685000Y-17780000D01*
X54645000Y-27939000D02*
X54645000Y-17781000D01*
X54605000Y-27938000D02*
X54605000Y-17782000D01*
X54565000Y-27937000D02*
X54565000Y-17783000D01*
X54525000Y-27935000D02*
X54525000Y-17785000D01*
X54485000Y-27933000D02*
X54485000Y-17787000D01*
X54445000Y-27930000D02*
X54445000Y-17790000D01*
X54405000Y-27928000D02*
X54405000Y-17792000D01*
X54365000Y-27925000D02*
X54365000Y-17795000D01*
X54325000Y-27922000D02*
X54325000Y-17798000D01*
X54285000Y-27918000D02*
X54285000Y-17802000D01*
X54245000Y-27914000D02*
X54245000Y-24101000D01*
X54245000Y-21619000D02*
X54245000Y-17806000D01*
X54205000Y-27910000D02*
X54205000Y-24101000D01*
X54205000Y-21619000D02*
X54205000Y-17810000D01*
X54165000Y-27905000D02*
X54165000Y-24101000D01*
X54165000Y-21619000D02*
X54165000Y-17815000D01*
X54125000Y-27900000D02*
X54125000Y-24101000D01*
X54125000Y-21619000D02*
X54125000Y-17820000D01*
X54085000Y-27895000D02*
X54085000Y-24101000D01*
X54085000Y-21619000D02*
X54085000Y-17825000D01*
X54044000Y-27890000D02*
X54044000Y-24101000D01*
X54044000Y-21619000D02*
X54044000Y-17830000D01*
X54004000Y-27884000D02*
X54004000Y-24101000D01*
X54004000Y-21619000D02*
X54004000Y-17836000D01*
X53964000Y-27878000D02*
X53964000Y-24101000D01*
X53964000Y-21619000D02*
X53964000Y-17842000D01*
X53924000Y-27871000D02*
X53924000Y-24101000D01*
X53924000Y-21619000D02*
X53924000Y-17849000D01*
X53884000Y-27864000D02*
X53884000Y-24101000D01*
X53884000Y-21619000D02*
X53884000Y-17856000D01*
X53844000Y-27857000D02*
X53844000Y-24101000D01*
X53844000Y-21619000D02*
X53844000Y-17863000D01*
X53804000Y-27850000D02*
X53804000Y-24101000D01*
X53804000Y-21619000D02*
X53804000Y-17870000D01*
X53764000Y-27842000D02*
X53764000Y-24101000D01*
X53764000Y-21619000D02*
X53764000Y-17878000D01*
X53724000Y-27834000D02*
X53724000Y-24101000D01*
X53724000Y-21619000D02*
X53724000Y-17886000D01*
X53684000Y-27825000D02*
X53684000Y-24101000D01*
X53684000Y-21619000D02*
X53684000Y-17895000D01*
X53644000Y-27816000D02*
X53644000Y-24101000D01*
X53644000Y-21619000D02*
X53644000Y-17904000D01*
X53604000Y-27807000D02*
X53604000Y-24101000D01*
X53604000Y-21619000D02*
X53604000Y-17913000D01*
X53564000Y-27798000D02*
X53564000Y-24101000D01*
X53564000Y-21619000D02*
X53564000Y-17922000D01*
X53524000Y-27788000D02*
X53524000Y-24101000D01*
X53524000Y-21619000D02*
X53524000Y-17932000D01*
X53484000Y-27778000D02*
X53484000Y-24101000D01*
X53484000Y-21619000D02*
X53484000Y-17942000D01*
X53444000Y-27767000D02*
X53444000Y-24101000D01*
X53444000Y-21619000D02*
X53444000Y-17953000D01*
X53404000Y-27757000D02*
X53404000Y-24101000D01*
X53404000Y-21619000D02*
X53404000Y-17963000D01*
X53364000Y-27745000D02*
X53364000Y-24101000D01*
X53364000Y-21619000D02*
X53364000Y-17975000D01*
X53324000Y-27734000D02*
X53324000Y-24101000D01*
X53324000Y-21619000D02*
X53324000Y-17986000D01*
X53284000Y-27722000D02*
X53284000Y-24101000D01*
X53284000Y-21619000D02*
X53284000Y-17998000D01*
X53244000Y-27710000D02*
X53244000Y-24101000D01*
X53244000Y-21619000D02*
X53244000Y-18010000D01*
X53204000Y-27697000D02*
X53204000Y-24101000D01*
X53204000Y-21619000D02*
X53204000Y-18023000D01*
X53164000Y-27684000D02*
X53164000Y-24101000D01*
X53164000Y-21619000D02*
X53164000Y-18036000D01*
X53124000Y-27671000D02*
X53124000Y-24101000D01*
X53124000Y-21619000D02*
X53124000Y-18049000D01*
X53084000Y-27657000D02*
X53084000Y-24101000D01*
X53084000Y-21619000D02*
X53084000Y-18063000D01*
X53044000Y-27643000D02*
X53044000Y-24101000D01*
X53044000Y-21619000D02*
X53044000Y-18077000D01*
X53004000Y-27628000D02*
X53004000Y-24101000D01*
X53004000Y-21619000D02*
X53004000Y-18092000D01*
X52964000Y-27614000D02*
X52964000Y-24101000D01*
X52964000Y-21619000D02*
X52964000Y-18106000D01*
X52924000Y-27598000D02*
X52924000Y-24101000D01*
X52924000Y-21619000D02*
X52924000Y-18122000D01*
X52884000Y-27583000D02*
X52884000Y-24101000D01*
X52884000Y-21619000D02*
X52884000Y-18137000D01*
X52844000Y-27567000D02*
X52844000Y-24101000D01*
X52844000Y-21619000D02*
X52844000Y-18153000D01*
X52804000Y-27550000D02*
X52804000Y-24101000D01*
X52804000Y-21619000D02*
X52804000Y-18170000D01*
X52764000Y-27534000D02*
X52764000Y-24101000D01*
X52764000Y-21619000D02*
X52764000Y-18186000D01*
X52724000Y-27517000D02*
X52724000Y-24101000D01*
X52724000Y-21619000D02*
X52724000Y-18203000D01*
X52684000Y-27499000D02*
X52684000Y-24101000D01*
X52684000Y-21619000D02*
X52684000Y-18221000D01*
X52644000Y-27481000D02*
X52644000Y-24101000D01*
X52644000Y-21619000D02*
X52644000Y-18239000D01*
X52604000Y-27463000D02*
X52604000Y-24101000D01*
X52604000Y-21619000D02*
X52604000Y-18257000D01*
X52564000Y-27444000D02*
X52564000Y-24101000D01*
X52564000Y-21619000D02*
X52564000Y-18276000D01*
X52524000Y-27424000D02*
X52524000Y-24101000D01*
X52524000Y-21619000D02*
X52524000Y-18296000D01*
X52484000Y-27405000D02*
X52484000Y-24101000D01*
X52484000Y-21619000D02*
X52484000Y-18315000D01*
X52444000Y-27385000D02*
X52444000Y-24101000D01*
X52444000Y-21619000D02*
X52444000Y-18335000D01*
X52404000Y-27364000D02*
X52404000Y-24101000D01*
X52404000Y-21619000D02*
X52404000Y-18356000D01*
X52364000Y-27343000D02*
X52364000Y-24101000D01*
X52364000Y-21619000D02*
X52364000Y-18377000D01*
X52324000Y-27322000D02*
X52324000Y-24101000D01*
X52324000Y-21619000D02*
X52324000Y-18398000D01*
X52284000Y-27300000D02*
X52284000Y-24101000D01*
X52284000Y-21619000D02*
X52284000Y-18420000D01*
X52244000Y-27277000D02*
X52244000Y-24101000D01*
X52244000Y-21619000D02*
X52244000Y-18443000D01*
X52204000Y-27255000D02*
X52204000Y-24101000D01*
X52204000Y-21619000D02*
X52204000Y-18465000D01*
X52164000Y-27231000D02*
X52164000Y-24101000D01*
X52164000Y-21619000D02*
X52164000Y-18489000D01*
X52124000Y-27207000D02*
X52124000Y-24101000D01*
X52124000Y-21619000D02*
X52124000Y-18513000D01*
X52084000Y-27183000D02*
X52084000Y-24101000D01*
X52084000Y-21619000D02*
X52084000Y-18537000D01*
X52044000Y-27158000D02*
X52044000Y-24101000D01*
X52044000Y-21619000D02*
X52044000Y-18562000D01*
X52004000Y-27133000D02*
X52004000Y-24101000D01*
X52004000Y-21619000D02*
X52004000Y-18587000D01*
X51964000Y-27107000D02*
X51964000Y-24101000D01*
X51964000Y-21619000D02*
X51964000Y-18613000D01*
X51924000Y-27081000D02*
X51924000Y-24101000D01*
X51924000Y-21619000D02*
X51924000Y-18639000D01*
X51884000Y-27054000D02*
X51884000Y-24101000D01*
X51884000Y-21619000D02*
X51884000Y-18666000D01*
X51844000Y-27026000D02*
X51844000Y-24101000D01*
X51844000Y-21619000D02*
X51844000Y-18694000D01*
X51804000Y-26998000D02*
X51804000Y-24101000D01*
X51804000Y-21619000D02*
X51804000Y-18722000D01*
X51764000Y-26970000D02*
X51764000Y-18750000D01*
X51724000Y-26940000D02*
X51724000Y-18780000D01*
X51684000Y-26910000D02*
X51684000Y-18810000D01*
X51644000Y-26880000D02*
X51644000Y-18840000D01*
X51604000Y-26849000D02*
X51604000Y-18871000D01*
X51564000Y-26817000D02*
X51564000Y-18903000D01*
X51524000Y-26785000D02*
X51524000Y-18935000D01*
X51484000Y-26752000D02*
X51484000Y-18968000D01*
X51444000Y-26718000D02*
X51444000Y-19002000D01*
X51404000Y-26684000D02*
X51404000Y-19036000D01*
X51364000Y-26649000D02*
X51364000Y-19071000D01*
X51324000Y-26613000D02*
X51324000Y-19107000D01*
X51284000Y-26576000D02*
X51284000Y-19144000D01*
X51244000Y-26539000D02*
X51244000Y-19181000D01*
X51204000Y-26500000D02*
X51204000Y-19220000D01*
X51164000Y-26461000D02*
X51164000Y-19259000D01*
X51124000Y-26421000D02*
X51124000Y-19299000D01*
X51084000Y-26380000D02*
X51084000Y-19340000D01*
X51044000Y-26338000D02*
X51044000Y-19382000D01*
X51004000Y-26296000D02*
X51004000Y-19424000D01*
X50964000Y-26252000D02*
X50964000Y-19468000D01*
X50924000Y-26207000D02*
X50924000Y-19513000D01*
X50884000Y-26161000D02*
X50884000Y-19559000D01*
X50844000Y-26114000D02*
X50844000Y-19606000D01*
X50804000Y-26066000D02*
X50804000Y-19654000D01*
X50764000Y-26016000D02*
X50764000Y-19704000D01*
X50724000Y-25966000D02*
X50724000Y-19754000D01*
X50684000Y-25914000D02*
X50684000Y-19806000D01*
X50644000Y-25860000D02*
X50644000Y-19860000D01*
X50604000Y-25805000D02*
X50604000Y-19915000D01*
X50564000Y-25749000D02*
X50564000Y-19971000D01*
X50524000Y-25690000D02*
X50524000Y-20030000D01*
X50484000Y-25630000D02*
X50484000Y-20090000D01*
X50444000Y-25569000D02*
X50444000Y-20151000D01*
X50404000Y-25505000D02*
X50404000Y-20215000D01*
X50364000Y-25439000D02*
X50364000Y-20281000D01*
X50324000Y-25370000D02*
X50324000Y-20350000D01*
X50284000Y-25299000D02*
X50284000Y-20421000D01*
X50244000Y-25225000D02*
X50244000Y-20495000D01*
X50204000Y-25149000D02*
X50204000Y-20571000D01*
X50164000Y-25069000D02*
X50164000Y-20651000D01*
X50124000Y-24985000D02*
X50124000Y-20735000D01*
X50084000Y-24897000D02*
X50084000Y-20823000D01*
X50044000Y-24804000D02*
X50044000Y-20916000D01*
X50004000Y-24706000D02*
X50004000Y-21014000D01*
X49964000Y-24602000D02*
X49964000Y-21118000D01*
X49924000Y-24490000D02*
X49924000Y-21230000D01*
X49884000Y-24370000D02*
X49884000Y-21350000D01*
X49844000Y-24238000D02*
X49844000Y-21482000D01*
X49804000Y-24090000D02*
X49804000Y-21630000D01*
X49764000Y-23922000D02*
X49764000Y-21798000D01*
X49724000Y-23722000D02*
X49724000Y-21998000D01*
X49684000Y-23459000D02*
X49684000Y-22261000D01*
X60244646Y-25735000D02*
X59244646Y-25735000D01*
X59744646Y-26235000D02*
X59744646Y-25235000D01*
%TO.C,U1*%
X38060000Y-22765000D02*
X48300000Y-22765000D01*
X38060000Y-27406000D02*
X48300000Y-27406000D01*
X38060000Y-22765000D02*
X38060000Y-27406000D01*
X48300000Y-22765000D02*
X48300000Y-27406000D01*
X38060000Y-24275000D02*
X48300000Y-24275000D01*
X41330000Y-22765000D02*
X41330000Y-24275000D01*
X45031000Y-22765000D02*
X45031000Y-24275000D01*
%TO.C,Q3*%
X42600000Y-44555000D02*
X42600000Y-48155000D01*
X42611522Y-48193478D02*
G75*
G03*
X47050000Y-46355000I1838478J1838478D01*
G01*
X42611522Y-44516522D02*
G75*
G02*
X47050000Y-46355000I1838478J-1838478D01*
G01*
%TO.C,Q1*%
X34980000Y-44555000D02*
X34980000Y-48155000D01*
X34991522Y-48193478D02*
G75*
G03*
X39430000Y-46355000I1838478J1838478D01*
G01*
X34991522Y-44516522D02*
G75*
G02*
X39430000Y-46355000I1838478J-1838478D01*
G01*
%TO.C,R10*%
D11*
X24122142Y-45367380D02*
X23788809Y-44891190D01*
X23550714Y-45367380D02*
X23550714Y-44367380D01*
X23931666Y-44367380D01*
X24026904Y-44415000D01*
X24074523Y-44462619D01*
X24122142Y-44557857D01*
X24122142Y-44700714D01*
X24074523Y-44795952D01*
X24026904Y-44843571D01*
X23931666Y-44891190D01*
X23550714Y-44891190D01*
X25074523Y-45367380D02*
X24503095Y-45367380D01*
X24788809Y-45367380D02*
X24788809Y-44367380D01*
X24693571Y-44510238D01*
X24598333Y-44605476D01*
X24503095Y-44653095D01*
X25693571Y-44367380D02*
X25788809Y-44367380D01*
X25884047Y-44415000D01*
X25931666Y-44462619D01*
X25979285Y-44557857D01*
X26026904Y-44748333D01*
X26026904Y-44986428D01*
X25979285Y-45176904D01*
X25931666Y-45272142D01*
X25884047Y-45319761D01*
X25788809Y-45367380D01*
X25693571Y-45367380D01*
X25598333Y-45319761D01*
X25550714Y-45272142D01*
X25503095Y-45176904D01*
X25455476Y-44986428D01*
X25455476Y-44748333D01*
X25503095Y-44557857D01*
X25550714Y-44462619D01*
X25598333Y-44415000D01*
X25693571Y-44367380D01*
%TO.C,U2*%
X55753095Y-34587380D02*
X55753095Y-35396904D01*
X55800714Y-35492142D01*
X55848333Y-35539761D01*
X55943571Y-35587380D01*
X56134047Y-35587380D01*
X56229285Y-35539761D01*
X56276904Y-35492142D01*
X56324523Y-35396904D01*
X56324523Y-34587380D01*
X56753095Y-34682619D02*
X56800714Y-34635000D01*
X56895952Y-34587380D01*
X57134047Y-34587380D01*
X57229285Y-34635000D01*
X57276904Y-34682619D01*
X57324523Y-34777857D01*
X57324523Y-34873095D01*
X57276904Y-35015952D01*
X56705476Y-35587380D01*
X57324523Y-35587380D01*
%TO.C,Q2*%
X29114761Y-40377619D02*
X29019523Y-40330000D01*
X28924285Y-40234761D01*
X28781428Y-40091904D01*
X28686190Y-40044285D01*
X28590952Y-40044285D01*
X28638571Y-40282380D02*
X28543333Y-40234761D01*
X28448095Y-40139523D01*
X28400476Y-39949047D01*
X28400476Y-39615714D01*
X28448095Y-39425238D01*
X28543333Y-39330000D01*
X28638571Y-39282380D01*
X28829047Y-39282380D01*
X28924285Y-39330000D01*
X29019523Y-39425238D01*
X29067142Y-39615714D01*
X29067142Y-39949047D01*
X29019523Y-40139523D01*
X28924285Y-40234761D01*
X28829047Y-40282380D01*
X28638571Y-40282380D01*
X29448095Y-39377619D02*
X29495714Y-39330000D01*
X29590952Y-39282380D01*
X29829047Y-39282380D01*
X29924285Y-39330000D01*
X29971904Y-39377619D01*
X30019523Y-39472857D01*
X30019523Y-39568095D01*
X29971904Y-39710952D01*
X29400476Y-40282380D01*
X30019523Y-40282380D01*
%TO.C,R9*%
X56348333Y-29197380D02*
X56015000Y-28721190D01*
X55776904Y-29197380D02*
X55776904Y-28197380D01*
X56157857Y-28197380D01*
X56253095Y-28245000D01*
X56300714Y-28292619D01*
X56348333Y-28387857D01*
X56348333Y-28530714D01*
X56300714Y-28625952D01*
X56253095Y-28673571D01*
X56157857Y-28721190D01*
X55776904Y-28721190D01*
X56824523Y-29197380D02*
X57015000Y-29197380D01*
X57110238Y-29149761D01*
X57157857Y-29102142D01*
X57253095Y-28959285D01*
X57300714Y-28768809D01*
X57300714Y-28387857D01*
X57253095Y-28292619D01*
X57205476Y-28245000D01*
X57110238Y-28197380D01*
X56919761Y-28197380D01*
X56824523Y-28245000D01*
X56776904Y-28292619D01*
X56729285Y-28387857D01*
X56729285Y-28625952D01*
X56776904Y-28721190D01*
X56824523Y-28768809D01*
X56919761Y-28816428D01*
X57110238Y-28816428D01*
X57205476Y-28768809D01*
X57253095Y-28721190D01*
X57300714Y-28625952D01*
%TO.C,R8*%
X56348333Y-49517380D02*
X56015000Y-49041190D01*
X55776904Y-49517380D02*
X55776904Y-48517380D01*
X56157857Y-48517380D01*
X56253095Y-48565000D01*
X56300714Y-48612619D01*
X56348333Y-48707857D01*
X56348333Y-48850714D01*
X56300714Y-48945952D01*
X56253095Y-48993571D01*
X56157857Y-49041190D01*
X55776904Y-49041190D01*
X56919761Y-48945952D02*
X56824523Y-48898333D01*
X56776904Y-48850714D01*
X56729285Y-48755476D01*
X56729285Y-48707857D01*
X56776904Y-48612619D01*
X56824523Y-48565000D01*
X56919761Y-48517380D01*
X57110238Y-48517380D01*
X57205476Y-48565000D01*
X57253095Y-48612619D01*
X57300714Y-48707857D01*
X57300714Y-48755476D01*
X57253095Y-48850714D01*
X57205476Y-48898333D01*
X57110238Y-48945952D01*
X56919761Y-48945952D01*
X56824523Y-48993571D01*
X56776904Y-49041190D01*
X56729285Y-49136428D01*
X56729285Y-49326904D01*
X56776904Y-49422142D01*
X56824523Y-49469761D01*
X56919761Y-49517380D01*
X57110238Y-49517380D01*
X57205476Y-49469761D01*
X57253095Y-49422142D01*
X57300714Y-49326904D01*
X57300714Y-49136428D01*
X57253095Y-49041190D01*
X57205476Y-48993571D01*
X57110238Y-48945952D01*
%TO.C,R7*%
X45072380Y-36996666D02*
X44596190Y-37330000D01*
X45072380Y-37568095D02*
X44072380Y-37568095D01*
X44072380Y-37187142D01*
X44120000Y-37091904D01*
X44167619Y-37044285D01*
X44262857Y-36996666D01*
X44405714Y-36996666D01*
X44500952Y-37044285D01*
X44548571Y-37091904D01*
X44596190Y-37187142D01*
X44596190Y-37568095D01*
X44072380Y-36663333D02*
X44072380Y-35996666D01*
X45072380Y-36425238D01*
%TO.C,R6*%
X43013333Y-49517380D02*
X42680000Y-49041190D01*
X42441904Y-49517380D02*
X42441904Y-48517380D01*
X42822857Y-48517380D01*
X42918095Y-48565000D01*
X42965714Y-48612619D01*
X43013333Y-48707857D01*
X43013333Y-48850714D01*
X42965714Y-48945952D01*
X42918095Y-48993571D01*
X42822857Y-49041190D01*
X42441904Y-49041190D01*
X43870476Y-48517380D02*
X43680000Y-48517380D01*
X43584761Y-48565000D01*
X43537142Y-48612619D01*
X43441904Y-48755476D01*
X43394285Y-48945952D01*
X43394285Y-49326904D01*
X43441904Y-49422142D01*
X43489523Y-49469761D01*
X43584761Y-49517380D01*
X43775238Y-49517380D01*
X43870476Y-49469761D01*
X43918095Y-49422142D01*
X43965714Y-49326904D01*
X43965714Y-49088809D01*
X43918095Y-48993571D01*
X43870476Y-48945952D01*
X43775238Y-48898333D01*
X43584761Y-48898333D01*
X43489523Y-48945952D01*
X43441904Y-48993571D01*
X43394285Y-49088809D01*
%TO.C,R5*%
X41262380Y-36996666D02*
X40786190Y-37330000D01*
X41262380Y-37568095D02*
X40262380Y-37568095D01*
X40262380Y-37187142D01*
X40310000Y-37091904D01*
X40357619Y-37044285D01*
X40452857Y-36996666D01*
X40595714Y-36996666D01*
X40690952Y-37044285D01*
X40738571Y-37091904D01*
X40786190Y-37187142D01*
X40786190Y-37568095D01*
X40262380Y-36091904D02*
X40262380Y-36568095D01*
X40738571Y-36615714D01*
X40690952Y-36568095D01*
X40643333Y-36472857D01*
X40643333Y-36234761D01*
X40690952Y-36139523D01*
X40738571Y-36091904D01*
X40833809Y-36044285D01*
X41071904Y-36044285D01*
X41167142Y-36091904D01*
X41214761Y-36139523D01*
X41262380Y-36234761D01*
X41262380Y-36472857D01*
X41214761Y-36568095D01*
X41167142Y-36615714D01*
%TO.C,R4*%
X42192380Y-36996666D02*
X41716190Y-37330000D01*
X42192380Y-37568095D02*
X41192380Y-37568095D01*
X41192380Y-37187142D01*
X41240000Y-37091904D01*
X41287619Y-37044285D01*
X41382857Y-36996666D01*
X41525714Y-36996666D01*
X41620952Y-37044285D01*
X41668571Y-37091904D01*
X41716190Y-37187142D01*
X41716190Y-37568095D01*
X41525714Y-36139523D02*
X42192380Y-36139523D01*
X41144761Y-36377619D02*
X41859047Y-36615714D01*
X41859047Y-35996666D01*
%TO.C,R3*%
X43013333Y-53327380D02*
X42680000Y-52851190D01*
X42441904Y-53327380D02*
X42441904Y-52327380D01*
X42822857Y-52327380D01*
X42918095Y-52375000D01*
X42965714Y-52422619D01*
X43013333Y-52517857D01*
X43013333Y-52660714D01*
X42965714Y-52755952D01*
X42918095Y-52803571D01*
X42822857Y-52851190D01*
X42441904Y-52851190D01*
X43346666Y-52327380D02*
X43965714Y-52327380D01*
X43632380Y-52708333D01*
X43775238Y-52708333D01*
X43870476Y-52755952D01*
X43918095Y-52803571D01*
X43965714Y-52898809D01*
X43965714Y-53136904D01*
X43918095Y-53232142D01*
X43870476Y-53279761D01*
X43775238Y-53327380D01*
X43489523Y-53327380D01*
X43394285Y-53279761D01*
X43346666Y-53232142D01*
%TO.C,R2*%
X29043333Y-58067380D02*
X28710000Y-57591190D01*
X28471904Y-58067380D02*
X28471904Y-57067380D01*
X28852857Y-57067380D01*
X28948095Y-57115000D01*
X28995714Y-57162619D01*
X29043333Y-57257857D01*
X29043333Y-57400714D01*
X28995714Y-57495952D01*
X28948095Y-57543571D01*
X28852857Y-57591190D01*
X28471904Y-57591190D01*
X29424285Y-57162619D02*
X29471904Y-57115000D01*
X29567142Y-57067380D01*
X29805238Y-57067380D01*
X29900476Y-57115000D01*
X29948095Y-57162619D01*
X29995714Y-57257857D01*
X29995714Y-57353095D01*
X29948095Y-57495952D01*
X29376666Y-58067380D01*
X29995714Y-58067380D01*
%TO.C,R1*%
X29043333Y-53622380D02*
X28710000Y-53146190D01*
X28471904Y-53622380D02*
X28471904Y-52622380D01*
X28852857Y-52622380D01*
X28948095Y-52670000D01*
X28995714Y-52717619D01*
X29043333Y-52812857D01*
X29043333Y-52955714D01*
X28995714Y-53050952D01*
X28948095Y-53098571D01*
X28852857Y-53146190D01*
X28471904Y-53146190D01*
X29995714Y-53622380D02*
X29424285Y-53622380D01*
X29710000Y-53622380D02*
X29710000Y-52622380D01*
X29614761Y-52765238D01*
X29519523Y-52860476D01*
X29424285Y-52908095D01*
%TO.C,J2*%
X18716666Y-39247380D02*
X18716666Y-39961666D01*
X18669047Y-40104523D01*
X18573809Y-40199761D01*
X18430952Y-40247380D01*
X18335714Y-40247380D01*
X19145238Y-39342619D02*
X19192857Y-39295000D01*
X19288095Y-39247380D01*
X19526190Y-39247380D01*
X19621428Y-39295000D01*
X19669047Y-39342619D01*
X19716666Y-39437857D01*
X19716666Y-39533095D01*
X19669047Y-39675952D01*
X19097619Y-40247380D01*
X19716666Y-40247380D01*
%TO.C,J1*%
X18716666Y-57027380D02*
X18716666Y-57741666D01*
X18669047Y-57884523D01*
X18573809Y-57979761D01*
X18430952Y-58027380D01*
X18335714Y-58027380D01*
X19716666Y-58027380D02*
X19145238Y-58027380D01*
X19430952Y-58027380D02*
X19430952Y-57027380D01*
X19335714Y-57170238D01*
X19240476Y-57265476D01*
X19145238Y-57313095D01*
%TO.C,C2*%
X54598333Y-29467142D02*
X54550714Y-29514761D01*
X54407857Y-29562380D01*
X54312619Y-29562380D01*
X54169761Y-29514761D01*
X54074523Y-29419523D01*
X54026904Y-29324285D01*
X53979285Y-29133809D01*
X53979285Y-28990952D01*
X54026904Y-28800476D01*
X54074523Y-28705238D01*
X54169761Y-28610000D01*
X54312619Y-28562380D01*
X54407857Y-28562380D01*
X54550714Y-28610000D01*
X54598333Y-28657619D01*
X54979285Y-28657619D02*
X55026904Y-28610000D01*
X55122142Y-28562380D01*
X55360238Y-28562380D01*
X55455476Y-28610000D01*
X55503095Y-28657619D01*
X55550714Y-28752857D01*
X55550714Y-28848095D01*
X55503095Y-28990952D01*
X54931666Y-29562380D01*
X55550714Y-29562380D01*
%TO.C,U1*%
X42418095Y-21217380D02*
X42418095Y-22026904D01*
X42465714Y-22122142D01*
X42513333Y-22169761D01*
X42608571Y-22217380D01*
X42799047Y-22217380D01*
X42894285Y-22169761D01*
X42941904Y-22122142D01*
X42989523Y-22026904D01*
X42989523Y-21217380D01*
X43989523Y-22217380D02*
X43418095Y-22217380D01*
X43703809Y-22217380D02*
X43703809Y-21217380D01*
X43608571Y-21360238D01*
X43513333Y-21455476D01*
X43418095Y-21503095D01*
%TO.C,Q3*%
X48557619Y-46450238D02*
X48510000Y-46545476D01*
X48414761Y-46640714D01*
X48271904Y-46783571D01*
X48224285Y-46878809D01*
X48224285Y-46974047D01*
X48462380Y-46926428D02*
X48414761Y-47021666D01*
X48319523Y-47116904D01*
X48129047Y-47164523D01*
X47795714Y-47164523D01*
X47605238Y-47116904D01*
X47510000Y-47021666D01*
X47462380Y-46926428D01*
X47462380Y-46735952D01*
X47510000Y-46640714D01*
X47605238Y-46545476D01*
X47795714Y-46497857D01*
X48129047Y-46497857D01*
X48319523Y-46545476D01*
X48414761Y-46640714D01*
X48462380Y-46735952D01*
X48462380Y-46926428D01*
X47462380Y-46164523D02*
X47462380Y-45545476D01*
X47843333Y-45878809D01*
X47843333Y-45735952D01*
X47890952Y-45640714D01*
X47938571Y-45593095D01*
X48033809Y-45545476D01*
X48271904Y-45545476D01*
X48367142Y-45593095D01*
X48414761Y-45640714D01*
X48462380Y-45735952D01*
X48462380Y-46021666D01*
X48414761Y-46116904D01*
X48367142Y-46164523D01*
%TO.C,Q1*%
X40937619Y-46450238D02*
X40890000Y-46545476D01*
X40794761Y-46640714D01*
X40651904Y-46783571D01*
X40604285Y-46878809D01*
X40604285Y-46974047D01*
X40842380Y-46926428D02*
X40794761Y-47021666D01*
X40699523Y-47116904D01*
X40509047Y-47164523D01*
X40175714Y-47164523D01*
X39985238Y-47116904D01*
X39890000Y-47021666D01*
X39842380Y-46926428D01*
X39842380Y-46735952D01*
X39890000Y-46640714D01*
X39985238Y-46545476D01*
X40175714Y-46497857D01*
X40509047Y-46497857D01*
X40699523Y-46545476D01*
X40794761Y-46640714D01*
X40842380Y-46735952D01*
X40842380Y-46926428D01*
X40842380Y-45545476D02*
X40842380Y-46116904D01*
X40842380Y-45831190D02*
X39842380Y-45831190D01*
X39985238Y-45926428D01*
X40080476Y-46021666D01*
X40128095Y-46116904D01*
%TD*%
M02*
