%TF.GenerationSoftware,KiCad,Pcbnew,5.1.6~rc1+dfsg1-1*%
%TF.CreationDate,2020-04-23T19:24:36-07:00*%
%TF.ProjectId,Radio-Power,52616469-6f2d-4506-9f77-65722e6b6963,rev?*%
%TF.SameCoordinates,Original*%
%TF.FileFunction,Soldermask,Bot*%
%TF.FilePolarity,Negative*%
%FSLAX46Y46*%
G04 Gerber Fmt 4.6, Leading zero omitted, Abs format (unit mm)*
G04 Created by KiCad (PCBNEW 5.1.6~rc1+dfsg1-1) date 2020-04-23 19:24:36*
%MOMM*%
%LPD*%
G01*
G04 APERTURE LIST*
%ADD10O,1.700000X1.700000*%
%ADD11C,1.700000*%
%ADD12R,1.700000X1.700000*%
%ADD13O,2.005000X2.100000*%
%ADD14R,2.005000X2.100000*%
%ADD15O,1.800000X1.800000*%
%ADD16R,1.800000X1.800000*%
%ADD17C,2.100000*%
%ADD18R,2.100000X2.100000*%
%ADD19R,1.600000X1.150000*%
%ADD20O,1.600000X1.150000*%
G04 APERTURE END LIST*
D10*
%TO.C,R10*%
X19685000Y-42545000D03*
D11*
X29845000Y-42545000D03*
%TD*%
D10*
%TO.C,U2*%
X60325000Y-37465000D03*
X52705000Y-45085000D03*
X60325000Y-40005000D03*
X52705000Y-42545000D03*
X60325000Y-42545000D03*
X52705000Y-40005000D03*
X60325000Y-45085000D03*
D12*
X52705000Y-37465000D03*
%TD*%
D13*
%TO.C,Q2*%
X26670000Y-35560000D03*
X29210000Y-35560000D03*
D14*
X31750000Y-35560000D03*
%TD*%
D10*
%TO.C,R9*%
X61595000Y-31115000D03*
D11*
X51435000Y-31115000D03*
%TD*%
D10*
%TO.C,R8*%
X61595000Y-51435000D03*
D11*
X51435000Y-51435000D03*
%TD*%
D10*
%TO.C,R7*%
X46990000Y-31750000D03*
D11*
X46990000Y-41910000D03*
%TD*%
D10*
%TO.C,R6*%
X48260000Y-51435000D03*
D11*
X38100000Y-51435000D03*
%TD*%
D10*
%TO.C,R5*%
X43180000Y-31750000D03*
D11*
X43180000Y-41910000D03*
%TD*%
D10*
%TO.C,R4*%
X39370000Y-41910000D03*
D11*
X39370000Y-31750000D03*
%TD*%
D10*
%TO.C,R3*%
X48260000Y-55245000D03*
D11*
X38100000Y-55245000D03*
%TD*%
D10*
%TO.C,R2*%
X24130000Y-55245000D03*
D11*
X34290000Y-55245000D03*
%TD*%
D10*
%TO.C,R1*%
X24130000Y-50800000D03*
D11*
X34290000Y-50800000D03*
%TD*%
D15*
%TO.C,J2*%
X19050000Y-34925000D03*
D16*
X19050000Y-37465000D03*
%TD*%
D15*
%TO.C,J1*%
X19050000Y-50165000D03*
X19050000Y-52705000D03*
D16*
X19050000Y-55245000D03*
%TD*%
D17*
%TO.C,C2*%
X53015000Y-22860000D03*
D18*
X56515000Y-22860000D03*
%TD*%
D13*
%TO.C,U1*%
X45720000Y-26035000D03*
X43180000Y-26035000D03*
D14*
X40640000Y-26035000D03*
%TD*%
D19*
%TO.C,Q3*%
X44450000Y-45085000D03*
D20*
X44450000Y-47625000D03*
X44450000Y-46355000D03*
%TD*%
D19*
%TO.C,Q1*%
X36830000Y-45085000D03*
D20*
X36830000Y-47625000D03*
X36830000Y-46355000D03*
%TD*%
M02*
