M48
; DRILL file {KiCad 5.1.6~rc1+dfsg1-1} date Thu Apr 23 19:30:39 2020
; FORMAT={-:-/ absolute / inch / decimal}
; #@! TF.CreationDate,2020-04-23T19:30:39-07:00
; #@! TF.GenerationSoftware,Kicad,Pcbnew,5.1.6~rc1+dfsg1-1
; #@! TF.FileFunction,Plated,1,2,PTH
FMAT,2
INCH
T1C0.0295
T2C0.0315
T3C0.0394
T4C0.0433
%
G90
G05
T1
X1.45Y-1.775
X1.45Y-1.825
X1.45Y-1.875
X1.75Y-1.775
X1.75Y-1.825
X1.75Y-1.875
T2
X1.5Y-2.175
X1.9Y-2.175
X1.5Y-2.025
X1.9Y-2.025
X2.025Y-2.025
X2.425Y-2.025
X2.075Y-1.475
X2.075Y-1.575
X2.075Y-1.675
X2.075Y-1.775
X2.375Y-1.475
X2.375Y-1.575
X2.375Y-1.675
X2.375Y-1.775
X0.95Y-2.0
X1.35Y-2.0
X1.55Y-1.25
X1.55Y-1.65
X1.85Y-1.25
X1.85Y-1.65
X0.95Y-2.175
X1.35Y-2.175
X0.775Y-1.675
X1.175Y-1.675
X2.025Y-1.225
X2.425Y-1.225
X1.7Y-1.25
X1.7Y-1.65
T3
X2.0872Y-0.9
X2.225Y-0.9
X0.75Y-1.975
X0.75Y-2.075
X0.75Y-2.175
X0.75Y-1.375
X0.75Y-1.475
T4
X1.6Y-1.025
X1.7Y-1.025
X1.8Y-1.025
X1.05Y-1.4
X1.15Y-1.4
X1.25Y-1.4
T0
M30
