<?xml version="1.0" standalone="no"?>
 <!DOCTYPE svg PUBLIC "-//W3C//DTD SVG 1.1//EN" 
 "http://www.w3.org/Graphics/SVG/1.1/DTD/svg11.dtd"> 
<svg xmlns="http://www.w3.org/2000/svg" version="1.1" 
    width="29.7002cm" height="21.0007cm" viewBox="0 0 116930 82680">
<title>SVG Picture created as Radio-Power-B_Cu.svg date 2020/04/23 17:15:58 </title>
  <desc>Picture generated by PCBNEW </desc>
<g style="fill:#000000; fill-opacity:1;stroke:#000000; stroke-opacity:1;
stroke-linecap:round; stroke-linejoin:round;"
 transform="translate(0 0) scale(1 1)">
</g>
<g style="fill:#000000; fill-opacity:0.0; 
stroke:#000000; stroke-width:-0.000393701; stroke-opacity:1; 
stroke-linecap:round; stroke-linejoin:round;">
<g >
</g>
<g style="fill:#000000; fill-opacity:0.0; 
stroke:#000000; stroke-width:629.921; stroke-opacity:1; 
stroke-linecap:round; stroke-linejoin:round;">
<path d="M23750 14750
L23750 14750
" />
<path d="M20750 17750
L20750 17750
" />
<path d="M23750 15750
L23750 15750
" />
<path d="M20750 16750
L20750 16750
" />
<path d="M23750 16750
L23750 16750
" />
<path d="M20750 15750
L20750 15750
" />
<path d="M23750 17750
L23750 17750
" />
</g>
<g style="fill:#000000; fill-opacity:0.0; 
stroke:#000000; stroke-width:0; stroke-opacity:1; 
stroke-linecap:round; stroke-linejoin:round;">
</g>
<g style="fill:#000000; fill-opacity:1.0; 
stroke:#000000; stroke-width:0; stroke-opacity:1; 
stroke-linecap:round; stroke-linejoin:round;">
<path style="fill:#000000; fill-opacity:1.0; 
stroke:#000000; stroke-width:0; stroke-opacity:1; 
stroke-linecap:round; stroke-linejoin:round;fill-rule:evenodd;"
d="M 20435,15065
20435,14435
21065,14435
21065,15065
Z" /> 
</g>
<g >
</g>
<g style="fill:#000000; fill-opacity:1.0; 
stroke:#000000; stroke-width:0; stroke-opacity:1; 
stroke-linecap:round; stroke-linejoin:round;">
</g>
<g style="fill:#000000; fill-opacity:1.0; 
stroke:#000000; stroke-width:750; stroke-opacity:1; 
stroke-linecap:round; stroke-linejoin:round;">
</g>
<g style="fill:#000000; fill-opacity:0.0; 
stroke:#000000; stroke-width:750; stroke-opacity:1; 
stroke-linecap:round; stroke-linejoin:round;">
<path d="M10500 14018
L10500 13981
" />
<path d="M11500 14018
L11500 13981
" />
</g>
<g style="fill:#000000; fill-opacity:0.0; 
stroke:#000000; stroke-width:0; stroke-opacity:1; 
stroke-linecap:round; stroke-linejoin:round;">
</g>
<g style="fill:#000000; fill-opacity:1.0; 
stroke:#000000; stroke-width:0; stroke-opacity:1; 
stroke-linecap:round; stroke-linejoin:round;">
<path style="fill:#000000; fill-opacity:1.0; 
stroke:#000000; stroke-width:0; stroke-opacity:1; 
stroke-linecap:round; stroke-linejoin:round;fill-rule:evenodd;"
d="M 12875,13606.3
12875,14393.7
12125,14393.7
12125,13606.3
Z" /> 
</g>
<g >
</g>
<g style="fill:#000000; fill-opacity:1.0; 
stroke:#000000; stroke-width:0; stroke-opacity:1; 
stroke-linecap:round; stroke-linejoin:round;">
</g>
<g style="fill:#000000; fill-opacity:1.0; 
stroke:#000000; stroke-width:629.921; stroke-opacity:1; 
stroke-linecap:round; stroke-linejoin:round;">
</g>
<g style="fill:#000000; fill-opacity:0.0; 
stroke:#000000; stroke-width:629.921; stroke-opacity:1; 
stroke-linecap:round; stroke-linejoin:round;">
<path d="M24250 12250
L24250 12250
" />
</g>
<g style="fill:#000000; fill-opacity:1.0; 
stroke:#000000; stroke-width:0; stroke-opacity:1; 
stroke-linecap:round; stroke-linejoin:round;">
<circle cx="20250" cy="12250" r="314.961" /> 
</g>
<g style="fill:#000000; fill-opacity:1.0; 
stroke:#000000; stroke-width:39.3701; stroke-opacity:1; 
stroke-linecap:round; stroke-linejoin:round;">
</g>
<g >
</g>
<g style="fill:#000000; fill-opacity:1.0; 
stroke:#000000; stroke-width:39.3701; stroke-opacity:1; 
stroke-linecap:round; stroke-linejoin:round;">
</g>
<g style="fill:#000000; fill-opacity:1.0; 
stroke:#000000; stroke-width:629.921; stroke-opacity:1; 
stroke-linecap:round; stroke-linejoin:round;">
</g>
<g style="fill:#000000; fill-opacity:0.0; 
stroke:#000000; stroke-width:629.921; stroke-opacity:1; 
stroke-linecap:round; stroke-linejoin:round;">
<path d="M24250 20250
L24250 20250
" />
</g>
<g style="fill:#000000; fill-opacity:1.0; 
stroke:#000000; stroke-width:0; stroke-opacity:1; 
stroke-linecap:round; stroke-linejoin:round;">
<circle cx="20250" cy="20250" r="314.961" /> 
</g>
<g style="fill:#000000; fill-opacity:1.0; 
stroke:#000000; stroke-width:39.3701; stroke-opacity:1; 
stroke-linecap:round; stroke-linejoin:round;">
</g>
<g >
</g>
<g style="fill:#000000; fill-opacity:1.0; 
stroke:#000000; stroke-width:39.3701; stroke-opacity:1; 
stroke-linecap:round; stroke-linejoin:round;">
</g>
<g style="fill:#000000; fill-opacity:1.0; 
stroke:#000000; stroke-width:629.921; stroke-opacity:1; 
stroke-linecap:round; stroke-linejoin:round;">
</g>
<g style="fill:#000000; fill-opacity:0.0; 
stroke:#000000; stroke-width:629.921; stroke-opacity:1; 
stroke-linecap:round; stroke-linejoin:round;">
<path d="M18500 12500
L18500 12500
" />
</g>
<g style="fill:#000000; fill-opacity:1.0; 
stroke:#000000; stroke-width:0; stroke-opacity:1; 
stroke-linecap:round; stroke-linejoin:round;">
<circle cx="18500" cy="16500" r="314.961" /> 
</g>
<g style="fill:#000000; fill-opacity:1.0; 
stroke:#000000; stroke-width:39.3701; stroke-opacity:1; 
stroke-linecap:round; stroke-linejoin:round;">
</g>
<g >
</g>
<g style="fill:#000000; fill-opacity:1.0; 
stroke:#000000; stroke-width:39.3701; stroke-opacity:1; 
stroke-linecap:round; stroke-linejoin:round;">
</g>
<g style="fill:#000000; fill-opacity:1.0; 
stroke:#000000; stroke-width:629.921; stroke-opacity:1; 
stroke-linecap:round; stroke-linejoin:round;">
</g>
<g style="fill:#000000; fill-opacity:0.0; 
stroke:#000000; stroke-width:629.921; stroke-opacity:1; 
stroke-linecap:round; stroke-linejoin:round;">
<path d="M19000 20250
L19000 20250
" />
</g>
<g style="fill:#000000; fill-opacity:1.0; 
stroke:#000000; stroke-width:0; stroke-opacity:1; 
stroke-linecap:round; stroke-linejoin:round;">
<circle cx="15000" cy="20250" r="314.961" /> 
</g>
<g style="fill:#000000; fill-opacity:1.0; 
stroke:#000000; stroke-width:39.3701; stroke-opacity:1; 
stroke-linecap:round; stroke-linejoin:round;">
</g>
<g >
</g>
<g style="fill:#000000; fill-opacity:1.0; 
stroke:#000000; stroke-width:39.3701; stroke-opacity:1; 
stroke-linecap:round; stroke-linejoin:round;">
</g>
<g style="fill:#000000; fill-opacity:1.0; 
stroke:#000000; stroke-width:629.921; stroke-opacity:1; 
stroke-linecap:round; stroke-linejoin:round;">
</g>
<g style="fill:#000000; fill-opacity:0.0; 
stroke:#000000; stroke-width:629.921; stroke-opacity:1; 
stroke-linecap:round; stroke-linejoin:round;">
<path d="M17000 12500
L17000 12500
" />
</g>
<g style="fill:#000000; fill-opacity:1.0; 
stroke:#000000; stroke-width:0; stroke-opacity:1; 
stroke-linecap:round; stroke-linejoin:round;">
<circle cx="17000" cy="16500" r="314.961" /> 
</g>
<g style="fill:#000000; fill-opacity:1.0; 
stroke:#000000; stroke-width:39.3701; stroke-opacity:1; 
stroke-linecap:round; stroke-linejoin:round;">
</g>
<g >
</g>
<g style="fill:#000000; fill-opacity:1.0; 
stroke:#000000; stroke-width:39.3701; stroke-opacity:1; 
stroke-linecap:round; stroke-linejoin:round;">
</g>
<g style="fill:#000000; fill-opacity:1.0; 
stroke:#000000; stroke-width:629.921; stroke-opacity:1; 
stroke-linecap:round; stroke-linejoin:round;">
</g>
<g style="fill:#000000; fill-opacity:0.0; 
stroke:#000000; stroke-width:629.921; stroke-opacity:1; 
stroke-linecap:round; stroke-linejoin:round;">
<path d="M15500 16500
L15500 16500
" />
</g>
<g style="fill:#000000; fill-opacity:1.0; 
stroke:#000000; stroke-width:0; stroke-opacity:1; 
stroke-linecap:round; stroke-linejoin:round;">
<circle cx="15500" cy="12500" r="314.961" /> 
</g>
<g style="fill:#000000; fill-opacity:1.0; 
stroke:#000000; stroke-width:39.3701; stroke-opacity:1; 
stroke-linecap:round; stroke-linejoin:round;">
</g>
<g >
</g>
<g style="fill:#000000; fill-opacity:1.0; 
stroke:#000000; stroke-width:39.3701; stroke-opacity:1; 
stroke-linecap:round; stroke-linejoin:round;">
</g>
<g style="fill:#000000; fill-opacity:1.0; 
stroke:#000000; stroke-width:629.921; stroke-opacity:1; 
stroke-linecap:round; stroke-linejoin:round;">
</g>
<g style="fill:#000000; fill-opacity:0.0; 
stroke:#000000; stroke-width:629.921; stroke-opacity:1; 
stroke-linecap:round; stroke-linejoin:round;">
<path d="M19000 21750
L19000 21750
" />
</g>
<g style="fill:#000000; fill-opacity:1.0; 
stroke:#000000; stroke-width:0; stroke-opacity:1; 
stroke-linecap:round; stroke-linejoin:round;">
<circle cx="15000" cy="21750" r="314.961" /> 
</g>
<g style="fill:#000000; fill-opacity:1.0; 
stroke:#000000; stroke-width:39.3701; stroke-opacity:1; 
stroke-linecap:round; stroke-linejoin:round;">
</g>
<g >
</g>
<g style="fill:#000000; fill-opacity:1.0; 
stroke:#000000; stroke-width:39.3701; stroke-opacity:1; 
stroke-linecap:round; stroke-linejoin:round;">
</g>
<g style="fill:#000000; fill-opacity:1.0; 
stroke:#000000; stroke-width:629.921; stroke-opacity:1; 
stroke-linecap:round; stroke-linejoin:round;">
</g>
<g style="fill:#000000; fill-opacity:0.0; 
stroke:#000000; stroke-width:629.921; stroke-opacity:1; 
stroke-linecap:round; stroke-linejoin:round;">
<path d="M9500 21750
L9500 21750
" />
</g>
<g style="fill:#000000; fill-opacity:1.0; 
stroke:#000000; stroke-width:0; stroke-opacity:1; 
stroke-linecap:round; stroke-linejoin:round;">
<circle cx="13500" cy="21750" r="314.961" /> 
</g>
<g style="fill:#000000; fill-opacity:1.0; 
stroke:#000000; stroke-width:39.3701; stroke-opacity:1; 
stroke-linecap:round; stroke-linejoin:round;">
</g>
<g >
</g>
<g style="fill:#000000; fill-opacity:1.0; 
stroke:#000000; stroke-width:39.3701; stroke-opacity:1; 
stroke-linecap:round; stroke-linejoin:round;">
</g>
<g style="fill:#000000; fill-opacity:1.0; 
stroke:#000000; stroke-width:629.921; stroke-opacity:1; 
stroke-linecap:round; stroke-linejoin:round;">
</g>
<g style="fill:#000000; fill-opacity:0.0; 
stroke:#000000; stroke-width:629.921; stroke-opacity:1; 
stroke-linecap:round; stroke-linejoin:round;">
<path d="M9500 20000
L9500 20000
" />
</g>
<g style="fill:#000000; fill-opacity:1.0; 
stroke:#000000; stroke-width:0; stroke-opacity:1; 
stroke-linecap:round; stroke-linejoin:round;">
<circle cx="13500" cy="20000" r="314.961" /> 
</g>
<g style="fill:#000000; fill-opacity:1.0; 
stroke:#000000; stroke-width:39.3701; stroke-opacity:1; 
stroke-linecap:round; stroke-linejoin:round;">
</g>
<g >
</g>
<g style="fill:#000000; fill-opacity:1.0; 
stroke:#000000; stroke-width:39.3701; stroke-opacity:1; 
stroke-linecap:round; stroke-linejoin:round;">
</g>
<g style="fill:#000000; fill-opacity:1.0; 
stroke:#000000; stroke-width:669.291; stroke-opacity:1; 
stroke-linecap:round; stroke-linejoin:round;">
</g>
<g style="fill:#000000; fill-opacity:0.0; 
stroke:#000000; stroke-width:669.291; stroke-opacity:1; 
stroke-linecap:round; stroke-linejoin:round;">
<path d="M7500 13750
L7500 13750
" />
</g>
<g style="fill:#000000; fill-opacity:0.0; 
stroke:#000000; stroke-width:0; stroke-opacity:1; 
stroke-linecap:round; stroke-linejoin:round;">
</g>
<g style="fill:#000000; fill-opacity:1.0; 
stroke:#000000; stroke-width:0; stroke-opacity:1; 
stroke-linecap:round; stroke-linejoin:round;">
<path style="fill:#000000; fill-opacity:1.0; 
stroke:#000000; stroke-width:0; stroke-opacity:1; 
stroke-linecap:round; stroke-linejoin:round;fill-rule:evenodd;"
d="M 7834.65,14415.4
7834.65,15084.6
7165.35,15084.6
7165.35,14415.4
Z" /> 
</g>
<g >
</g>
<g style="fill:#000000; fill-opacity:1.0; 
stroke:#000000; stroke-width:0; stroke-opacity:1; 
stroke-linecap:round; stroke-linejoin:round;">
</g>
<g style="fill:#000000; fill-opacity:1.0; 
stroke:#000000; stroke-width:669.291; stroke-opacity:1; 
stroke-linecap:round; stroke-linejoin:round;">
</g>
<g style="fill:#000000; fill-opacity:0.0; 
stroke:#000000; stroke-width:669.291; stroke-opacity:1; 
stroke-linecap:round; stroke-linejoin:round;">
<path d="M7500 19750
L7500 19750
" />
<path d="M7500 20750
L7500 20750
" />
</g>
<g style="fill:#000000; fill-opacity:0.0; 
stroke:#000000; stroke-width:0; stroke-opacity:1; 
stroke-linecap:round; stroke-linejoin:round;">
</g>
<g style="fill:#000000; fill-opacity:1.0; 
stroke:#000000; stroke-width:0; stroke-opacity:1; 
stroke-linecap:round; stroke-linejoin:round;">
<path style="fill:#000000; fill-opacity:1.0; 
stroke:#000000; stroke-width:0; stroke-opacity:1; 
stroke-linecap:round; stroke-linejoin:round;fill-rule:evenodd;"
d="M 7834.65,21415.4
7834.65,22084.6
7165.35,22084.6
7165.35,21415.4
Z" /> 
</g>
<g >
</g>
<g style="fill:#000000; fill-opacity:1.0; 
stroke:#000000; stroke-width:0; stroke-opacity:1; 
stroke-linecap:round; stroke-linejoin:round;">
<circle cx="20872" cy="9000" r="393.701" /> 
</g>
<g style="fill:#000000; fill-opacity:1.0; 
stroke:#000000; stroke-width:39.3701; stroke-opacity:1; 
stroke-linecap:round; stroke-linejoin:round;">
</g>
<g style="fill:#000000; fill-opacity:1.0; 
stroke:#000000; stroke-width:0; stroke-opacity:1; 
stroke-linecap:round; stroke-linejoin:round;">
<path style="fill:#000000; fill-opacity:1.0; 
stroke:#000000; stroke-width:0; stroke-opacity:1; 
stroke-linecap:round; stroke-linejoin:round;fill-rule:evenodd;"
d="M 22643.7,8606.3
22643.7,9393.7
21856.3,9393.7
21856.3,8606.3
Z" /> 
</g>
<g >
</g>
<g style="fill:#000000; fill-opacity:1.0; 
stroke:#000000; stroke-width:0; stroke-opacity:1; 
stroke-linecap:round; stroke-linejoin:round;">
</g>
<g style="fill:#000000; fill-opacity:1.0; 
stroke:#000000; stroke-width:750; stroke-opacity:1; 
stroke-linecap:round; stroke-linejoin:round;">
</g>
<g style="fill:#000000; fill-opacity:0.0; 
stroke:#000000; stroke-width:750; stroke-opacity:1; 
stroke-linecap:round; stroke-linejoin:round;">
<path d="M18000 10231
L18000 10268
" />
<path d="M17000 10231
L17000 10268
" />
</g>
<g style="fill:#000000; fill-opacity:0.0; 
stroke:#000000; stroke-width:0; stroke-opacity:1; 
stroke-linecap:round; stroke-linejoin:round;">
</g>
<g style="fill:#000000; fill-opacity:1.0; 
stroke:#000000; stroke-width:0; stroke-opacity:1; 
stroke-linecap:round; stroke-linejoin:round;">
<path style="fill:#000000; fill-opacity:1.0; 
stroke:#000000; stroke-width:0; stroke-opacity:1; 
stroke-linecap:round; stroke-linejoin:round;fill-rule:evenodd;"
d="M 15625,10643.7
15625,9856.3
16375,9856.3
16375,10643.7
Z" /> 
</g>
<g >
</g>
<g style="fill:#000000; fill-opacity:1.0; 
stroke:#000000; stroke-width:0; stroke-opacity:1; 
stroke-linecap:round; stroke-linejoin:round;">
<path style="fill:#000000; fill-opacity:1.0; 
stroke:#000000; stroke-width:0; stroke-opacity:1; 
stroke-linecap:round; stroke-linejoin:round;fill-rule:evenodd;"
d="M 17204.7,17543.3
17795.3,17543.3
17795.3,17956.7
17204.7,17956.7
Z" /> 
</g>
<g style="fill:#000000; fill-opacity:1.0; 
stroke:#000000; stroke-width:413.386; stroke-opacity:1; 
stroke-linecap:round; stroke-linejoin:round;">
</g>
<g style="fill:#000000; fill-opacity:0.0; 
stroke:#000000; stroke-width:413.386; stroke-opacity:1; 
stroke-linecap:round; stroke-linejoin:round;">
<path d="M17588 18750
L17411 18750
" />
<path d="M17588 18250
L17411 18250
" />
</g>
<g >
</g>
<g style="fill:#000000; fill-opacity:0.0; 
stroke:#000000; stroke-width:413.386; stroke-opacity:1; 
stroke-linecap:round; stroke-linejoin:round;">
</g>
<g style="fill:#000000; fill-opacity:0.0; 
stroke:#000000; stroke-width:0; stroke-opacity:1; 
stroke-linecap:round; stroke-linejoin:round;">
</g>
<g style="fill:#000000; fill-opacity:1.0; 
stroke:#000000; stroke-width:0; stroke-opacity:1; 
stroke-linecap:round; stroke-linejoin:round;">
<path style="fill:#000000; fill-opacity:1.0; 
stroke:#000000; stroke-width:0; stroke-opacity:1; 
stroke-linecap:round; stroke-linejoin:round;fill-rule:evenodd;"
d="M 14204.7,17543.3
14795.3,17543.3
14795.3,17956.7
14204.7,17956.7
Z" /> 
</g>
<g style="fill:#000000; fill-opacity:1.0; 
stroke:#000000; stroke-width:413.386; stroke-opacity:1; 
stroke-linecap:round; stroke-linejoin:round;">
</g>
<g style="fill:#000000; fill-opacity:0.0; 
stroke:#000000; stroke-width:413.386; stroke-opacity:1; 
stroke-linecap:round; stroke-linejoin:round;">
<path d="M14588 18750
L14411 18750
" />
<path d="M14588 18250
L14411 18250
" />
</g>
<g >
</g>
<g >
</g>
<g style="fill:#000000; fill-opacity:0.0; 
stroke:#000000; stroke-width:413.386; stroke-opacity:1; 
stroke-linecap:round; stroke-linejoin:round;">
</g>
<g style="fill:#000000; fill-opacity:0.0; 
stroke:#000000; stroke-width:98.4252; stroke-opacity:1; 
stroke-linecap:round; stroke-linejoin:round;">
<path d="M17500 11500
L18500 12500
" />
<path d="M13000 11500
L17500 11500
" />
<path d="M10500 14000
L13000 11500
" />
</g>
<g style="fill:#000000; fill-opacity:0.0; 
stroke:#000000; stroke-width:826.772; stroke-opacity:1; 
stroke-linecap:round; stroke-linejoin:round;">
<path d="M7500 19750
L10500 16750
" />
<path d="M10500 16750
L10500 14000
" />
</g>
<g style="fill:#000000; fill-opacity:0.0; 
stroke:#000000; stroke-width:98.4252; stroke-opacity:1; 
stroke-linecap:round; stroke-linejoin:round;">
<path d="M8750 20750
L9500 20000
" />
<path d="M7500 20750
L8750 20750
" />
<path d="M9500 20000
L17000 12500
" />
</g>
<g >
</g>
<g style="fill:#000000; fill-opacity:0.0; 
stroke:#000000; stroke-width:98.4252; stroke-opacity:1; 
stroke-linecap:round; stroke-linejoin:round;">
</g>
<g style="fill:#000000; fill-opacity:1.0; 
stroke:#000000; stroke-width:100; stroke-opacity:1; 
stroke-linecap:round; stroke-linejoin:round;">
<path style="fill:#000000; fill-opacity:1.0; 
stroke:#000000; stroke-width:100; stroke-opacity:1; 
stroke-linecap:round; stroke-linejoin:round;fill-rule:evenodd;"
d="M 25700,22950
6550,22950
6550,22084.6
6914.14,22084.6
6918.97,22133.7
6933.27,22180.8
6956.48,22224.2
6987.72,22262.3
7025.79,22293.5
7069.22,22316.7
7116.35,22331
7165.35,22335.9
7387.5,22334.6
7450,22272.1
7450,21800
7550,21800
7550,22272.1
7612.5,22334.6
7834.65,22335.9
7883.65,22331
7930.78,22316.7
7974.21,22293.5
8012.28,22262.3
8043.52,22224.2
8066.73,22180.8
8081.03,22133.7
8085.86,22084.6
8084.78,21887.4
8952.01,21887.4
8968.01,21940.2
9015.34,22040.3
9081.29,22129.3
9163.33,22203.7
9258.31,22260.7
9362.58,22298
9450,22250.2
9450,21800
9550,21800
9550,22250.2
9637.42,22298
9741.69,22260.7
9836.67,22203.7
9918.71,22129.3
9984.66,22040.3
10032,21940.2
10048,21887.4
9999.97,21800
9550,21800
9450,21800
9000.03,21800
8952.01,21887.4
8084.78,21887.4
8084.65,21862.5
8022.15,21800
7550,21800
7450,21800
6977.85,21800
6915.35,21862.5
6914.14,22084.6
6550,22084.6
6550,19750
6833.41,19750
6846.21,19880
6884.15,20005.1
6945.75,20120.3
7028.65,20221.4
7123.77,20299.4
7045.88,20377.3
6981.89,20473.1
6937.82,20579.5
6915.35,20692.4
6915.35,20807.6
6937.82,20920.5
6981.89,21026.9
7045.88,21122.7
7097.79,21174.6
7069.22,21183.3
7025.79,21206.5
6987.72,21237.7
6956.48,21275.8
6933.27,21319.2
6918.97,21366.3
6914.14,21415.4
6915.35,21637.5
6977.85,21700
7450,21700
7450,21692.1
7550,21692.1
7550,21700
8022.15,21700
8084.65,21637.5
8084.78,21612.6
8952.01,21612.6
9000.03,21700
9450,21700
9450,21249.8
9550,21249.8
9550,21700
9999.97,21700
10003.1,21694.4
12935,21694.4
12935,21805.6
12956.8,21914.8
12999.3,22017.6
13061.2,22110.1
13139.9,22188.8
13232.4,22250.7
13335.2,22293.2
13444.4,22315
13555.6,22315
13664.8,22293.2
13767.6,22250.7
13860.1,22188.8
13938.8,22110.1
14000.7,22017.6
14043.2,21914.8
14065,21805.6
14065,21694.4
14435,21694.4
14435,21805.6
14456.8,21914.8
14499.3,22017.6
14561.2,22110.1
14639.9,22188.8
14732.4,22250.7
14835.2,22293.2
14944.4,22315
15055.6,22315
15164.8,22293.2
15267.6,22250.7
15360.1,22188.8
15438.8,22110.1
15500.7,22017.6
15543.2,21914.8
15548.7,21887.4
18452,21887.4
18468,21940.2
18515.3,22040.3
18581.3,22129.3
18663.3,22203.7
18758.3,22260.7
18862.6,22298
18950,22250.2
18950,21800
19050,21800
19050,22250.2
19137.4,22298
19241.7,22260.7
19336.7,22203.7
19418.7,22129.3
19484.7,22040.3
19532,21940.2
19548,21887.4
19500,21800
19050,21800
18950,21800
18500,21800
18452,21887.4
15548.7,21887.4
15565,21805.6
15565,21694.4
15548.7,21612.6
18452,21612.6
18500,21700
18950,21700
18950,21249.8
19050,21249.8
19050,21700
19500,21700
19548,21612.6
19532,21559.8
19484.7,21459.7
19418.7,21370.7
19336.7,21296.3
19241.7,21239.3
19137.4,21202
19050,21249.8
18950,21249.8
18862.6,21202
18758.3,21239.3
18663.3,21296.3
18581.3,21370.7
18515.3,21459.7
18468,21559.8
18452,21612.6
15548.7,21612.6
15543.2,21585.2
15500.7,21482.4
15438.8,21389.9
15360.1,21311.2
15267.6,21249.3
15164.8,21206.8
15055.6,21185
14944.4,21185
14835.2,21206.8
14732.4,21249.3
14639.9,21311.2
14561.2,21389.9
14499.3,21482.4
14456.8,21585.2
14435,21694.4
14065,21694.4
14043.2,21585.2
14000.7,21482.4
13938.8,21389.9
13860.1,21311.2
13767.6,21249.3
13664.8,21206.8
13555.6,21185
13444.4,21185
13335.2,21206.8
13232.4,21249.3
13139.9,21311.2
13061.2,21389.9
12999.3,21482.4
12956.8,21585.2
12935,21694.4
10003.1,21694.4
10048,21612.6
10032,21559.8
9984.66,21459.7
9918.71,21370.7
9836.67,21296.3
9741.69,21239.3
9637.42,21202
9550,21249.8
9450,21249.8
9362.58,21202
9258.31,21239.3
9163.33,21296.3
9081.29,21370.7
9015.34,21459.7
8968.01,21559.8
8952.01,21612.6
8084.78,21612.6
8085.86,21415.4
8081.03,21366.3
8066.73,21319.2
8043.52,21275.8
8012.28,21237.7
7974.21,21206.5
7930.78,21183.3
7902.21,21174.6
7954.12,21122.7
8003.22,21049.2
8735.31,21049.2
8750,21050.7
8764.69,21049.2
8764.7,21049.2
8808.66,21044.9
8865.06,21027.8
8917.04,21000
8962.6,20962.6
8971.97,20951.2
9282.32,20640.8
14679.9,20640.8
14708.1,20736.9
14808.7,20784.5
14916.6,20811.5
15027.8,20817
15137.8,20800.7
15242.6,20763.2
15291.9,20736.9
15320.1,20640.8
15000,20320.7
14679.9,20640.8
9282.32,20640.8
9372.49,20550.7
9444.36,20565
9555.64,20565
9664.79,20543.2
9767.61,20500.7
9860.14,20438.8
9938.83,20360.1
10000.7,20267.6
10043.2,20164.8
10065,20055.6
10065,19944.4
12935,19944.4
12935,20055.6
12956.8,20164.8
12999.3,20267.6
13061.2,20360.1
13139.9,20438.8
13232.4,20500.7
13335.2,20543.2
13444.4,20565
13555.6,20565
13664.8,20543.2
13767.6,20500.7
13860.1,20438.8
13938.8,20360.1
13993.9,20277.8
14433,20277.8
14449.3,20387.8
14486.8,20492.6
14513.1,20541.9
14609.2,20570.1
14929.3,20250
15070.7,20250
15390.8,20570.1
15486.9,20541.9
15534.5,20441.3
15561.5,20333.4
15567,20222.2
15562.9,20194.4
18435,20194.4
18435,20305.6
18456.8,20414.8
18499.3,20517.6
18561.2,20610.1
18639.9,20688.8
18732.4,20750.7
18835.2,20793.2
18944.4,20815
19055.6,20815
19164.8,20793.2
19267.6,20750.7
19360.1,20688.8
19408.1,20640.8
19929.9,20640.8
19958.1,20736.9
20058.7,20784.5
20166.6,20811.5
20277.8,20817
20387.8,20800.7
20492.6,20763.2
20541.9,20736.9
20570.1,20640.8
20250,20320.7
19929.9,20640.8
19408.1,20640.8
19438.8,20610.1
19500.7,20517.6
19543.2,20414.8
19565,20305.6
19565,20277.8
19683,20277.8
19699.3,20387.8
19736.8,20492.6
19763.1,20541.9
19859.2,20570.1
20179.3,20250
20320.7,20250
20640.8,20570.1
20736.9,20541.9
20784.5,20441.3
20811.5,20333.4
20817,20222.2
20812.9,20194.4
23685,20194.4
23685,20305.6
23706.8,20414.8
23749.3,20517.6
23811.2,20610.1
23889.9,20688.8
23982.4,20750.7
24085.2,20793.2
24194.4,20815
24305.6,20815
24414.8,20793.2
24517.6,20750.7
24610.1,20688.8
24688.8,20610.1
24750.7,20517.6
24793.2,20414.8
24815,20305.6
24815,20194.4
24793.2,20085.2
24750.7,19982.4
24688.8,19889.9
24610.1,19811.2
24517.6,19749.3
24414.8,19706.8
24305.6,19685
24194.4,19685
24085.2,19706.8
23982.4,19749.3
23889.9,19811.2
23811.2,19889.9
23749.3,19982.4
23706.8,20085.2
23685,20194.4
20812.9,20194.4
20800.7,20112.2
20763.2,20007.4
20736.9,19958.1
20640.8,19929.9
20320.7,20250
20179.3,20250
19859.2,19929.9
19763.1,19958.1
19715.5,20058.7
19688.5,20166.6
19683,20277.8
19565,20277.8
19565,20194.4
19543.2,20085.2
19500.7,19982.4
19438.8,19889.9
19408.1,19859.2
19929.9,19859.2
20250,20179.3
20570.1,19859.2
20541.9,19763.1
20441.3,19715.5
20333.4,19688.5
20222.2,19683
20112.2,19699.3
20007.4,19736.8
19958.1,19763.1
19929.9,19859.2
19408.1,19859.2
19360.1,19811.2
19267.6,19749.3
19164.8,19706.8
19055.6,19685
18944.4,19685
18835.2,19706.8
18732.4,19749.3
18639.9,19811.2
18561.2,19889.9
18499.3,19982.4
18456.8,20085.2
18435,20194.4
15562.9,20194.4
15550.7,20112.2
15513.2,20007.4
15486.9,19958.1
15390.8,19929.9
15070.7,20250
14929.3,20250
14609.2,19929.9
14513.1,19958.1
14465.5,20058.7
14438.5,20166.6
14433,20277.8
13993.9,20277.8
14000.7,20267.6
14043.2,20164.8
14065,20055.6
14065,19944.4
14048,19859.2
14679.9,19859.2
15000,20179.3
15320.1,19859.2
15291.9,19763.1
15191.3,19715.5
15083.4,19688.5
14972.2,19683
14862.2,19699.3
14757.4,19736.8
14708.1,19763.1
14679.9,19859.2
14048,19859.2
14043.2,19835.2
14000.7,19732.4
13938.8,19639.9
13860.1,19561.2
13767.6,19499.3
13664.8,19456.8
13555.6,19435
13444.4,19435
13335.2,19456.8
13232.4,19499.3
13139.9,19561.2
13061.2,19639.9
12999.3,19732.4
12956.8,19835.2
12935,19944.4
10065,19944.4
10050.7,19872.5
11052.8,18870.4
13970.9,18870.4
13974.3,18894.6
14010.9,18977.1
14062.9,19050.9
14128.3,19113.1
14204.6,19161.3
14288.8,19193.8
14377.8,19209.2
14450,19146.3
14450,18800
14550,18800
14550,19146.3
14622.2,19209.2
14711.2,19193.8
14795.4,19161.3
14871.7,19113.1
14937.1,19050.9
14989.1,18977.1
15025.7,18894.6
15029.1,18870.4
16970.9,18870.4
16974.3,18894.6
17010.9,18977.1
17062.9,19050.9
17128.3,19113.1
17204.6,19161.3
17288.8,19193.8
17377.8,19209.2
17450,19146.3
17450,18800
17550,18800
17550,19146.3
17622.2,19209.2
17711.2,19193.8
17795.4,19161.3
17871.7,19113.1
17937.1,19050.9
17989.1,18977.1
18025.7,18894.6
18029.1,18870.4
17979.6,18800
17550,18800
17450,18800
17020.4,18800
16970.9,18870.4
15029.1,18870.4
14979.6,18800
14550,18800
14450,18800
14020.4,18800
13970.9,18870.4
11052.8,18870.4
11673.1,18250
13952.5,18250
13961.3,18339.5
13987.4,18425.6
14027.1,18499.9
14010.9,18522.9
13974.3,18605.4
13970.9,18629.6
14020.4,18700
14321.6,18700
14321.9,18700.1
14389,18706.7
14611,18706.7
14678.1,18700.1
14678.4,18700
14979.6,18700
15029.1,18629.6
15025.7,18605.4
14989.1,18522.9
14972.9,18499.9
15012.6,18425.6
15038.7,18339.5
15047.5,18250
16952.5,18250
16961.3,18339.5
16987.4,18425.6
17027.1,18499.9
17010.9,18522.9
16974.3,18605.4
16970.9,18629.6
17020.4,18700
17321.6,18700
17321.9,18700.1
17389,18706.7
17611,18706.7
17678.1,18700.1
17678.4,18700
17979.6,18700
18029.1,18629.6
18025.7,18605.4
17989.1,18522.9
17972.9,18499.9
18012.6,18425.6
18038.7,18339.5
18047.5,18250
18038.7,18160.5
18013.7,18078.3
18027.4,18052.8
18041.7,18005.7
18046.5,17956.7
18046.5,17887.4
20202,17887.4
20218,17940.2
20265.3,18040.3
20331.3,18129.3
20413.3,18203.7
20508.3,18260.7
20612.6,18298
20700,18250.2
20700,17800
20800,17800
20800,18250.2
20887.4,18298
20991.7,18260.7
21086.7,18203.7
21168.7,18129.3
21234.7,18040.3
21282,17940.2
21298,17887.4
21250,17800
20800,17800
20700,17800
20250,17800
20202,17887.4
18046.5,17887.4
18046.5,17543.3
18041.7,17494.3
18027.4,17447.2
18004.1,17403.7
17972.9,17365.7
17934.8,17334.4
17891.4,17311.2
17844.3,17296.9
17795.3,17292.1
17204.7,17292.1
17155.7,17296.9
17108.6,17311.2
17065.2,17334.4
17027.1,17365.7
16995.9,17403.7
16972.6,17447.2
16958.3,17494.3
16953.5,17543.3
16953.5,17956.7
16958.3,18005.7
16972.6,18052.8
16986.3,18078.3
16961.3,18160.5
16952.5,18250
15047.5,18250
15038.7,18160.5
15013.7,18078.3
15027.4,18052.8
15041.7,18005.7
15046.5,17956.7
15046.5,17543.3
15041.7,17494.3
15027.4,17447.2
15004.1,17403.7
14972.9,17365.7
14934.8,17334.4
14891.4,17311.2
14844.3,17296.9
14795.3,17292.1
14204.7,17292.1
14155.7,17296.9
14108.6,17311.2
14065.2,17334.4
14027.1,17365.7
13995.9,17403.7
13972.6,17447.2
13958.3,17494.3
13953.5,17543.3
13953.5,17956.7
13958.3,18005.7
13972.6,18052.8
13986.3,18078.3
13961.3,18160.5
13952.5,18250
11673.1,18250
13478.8,16444.4
14935,16444.4
14935,16555.6
14956.8,16664.8
14999.3,16767.6
15061.2,16860.1
15139.9,16938.8
15232.4,17000.7
15335.2,17043.2
15444.4,17065
15555.6,17065
15664.8,17043.2
15767.6,17000.7
15860.1,16938.8
15938.8,16860.1
16000.7,16767.6
16043.2,16664.8
16065,16555.6
16065,16444.4
16435,16444.4
16435,16555.6
16456.8,16664.8
16499.3,16767.6
16561.2,16860.1
16639.9,16938.8
16732.4,17000.7
16835.2,17043.2
16944.4,17065
17055.6,17065
17164.8,17043.2
17267.6,17000.7
17360.1,16938.8
17438.8,16860.1
17500.7,16767.6
17543.2,16664.8
17565,16555.6
17565,16444.4
17935,16444.4
17935,16555.6
17956.8,16664.8
17999.3,16767.6
18061.2,16860.1
18139.9,16938.8
18232.4,17000.7
18335.2,17043.2
18444.4,17065
18555.6,17065
18664.8,17043.2
18767.6,17000.7
18860.1,16938.8
18938.8,16860.1
19000.7,16767.6
19043.2,16664.8
19065,16555.6
19065,16444.4
19043.2,16335.2
19000.7,16232.4
18938.8,16139.9
18860.1,16061.2
18767.6,15999.3
18664.8,15956.8
18555.6,15935
18444.4,15935
18335.2,15956.8
18232.4,15999.3
18139.9,16061.2
18061.2,16139.9
17999.3,16232.4
17956.8,16335.2
17935,16444.4
17565,16444.4
17543.2,16335.2
17500.7,16232.4
17438.8,16139.9
17360.1,16061.2
17267.6,15999.3
17164.8,15956.8
17055.6,15935
16944.4,15935
16835.2,15956.8
16732.4,15999.3
16639.9,16061.2
16561.2,16139.9
16499.3,16232.4
16456.8,16335.2
16435,16444.4
16065,16444.4
16043.2,16335.2
16000.7,16232.4
15938.8,16139.9
15860.1,16061.2
15767.6,15999.3
15664.8,15956.8
15555.6,15935
15444.4,15935
15335.2,15956.8
15232.4,15999.3
15139.9,16061.2
15061.2,16139.9
14999.3,16232.4
14956.8,16335.2
14935,16444.4
13478.8,16444.4
15488.1,14435
20183.8,14435
20183.8,15065
20188.7,15114
20203,15161.1
20226.2,15204.5
20257.4,15242.6
20295.5,15273.8
20338.9,15297
20386,15311.3
20389.4,15311.7
20311.2,15389.9
20249.3,15482.4
20206.8,15585.2
20185,15694.4
20185,15805.6
20206.8,15914.8
20249.3,16017.6
20311.2,16110.1
20389.9,16188.8
20481.4,16250
20389.9,16311.2
20311.2,16389.9
20249.3,16482.4
20206.8,16585.2
20185,16694.4
20185,16805.6
20206.8,16914.8
20249.3,17017.6
20311.2,17110.1
20389.9,17188.8
20482.4,17250.7
20486.6,17252.4
20413.3,17296.3
20331.3,17370.7
20265.3,17459.7
20218,17559.8
20202,17612.6
20250,17700
20700,17700
20700,17692.1
20800,17692.1
20800,17700
21250,17700
21298,17612.6
21282,17559.8
21234.7,17459.7
21168.7,17370.7
21086.7,17296.3
21013.4,17252.4
21017.6,17250.7
21110.1,17188.8
21188.8,17110.1
21250.7,17017.6
21293.2,16914.8
21315,16805.6
21315,16694.4
21293.2,16585.2
21250.7,16482.4
21188.8,16389.9
21110.1,16311.2
21018.6,16250
21110.1,16188.8
21188.8,16110.1
21250.7,16017.6
21293.2,15914.8
21315,15805.6
21315,15694.4
21293.2,15585.2
21250.7,15482.4
21188.8,15389.9
21110.6,15311.7
21114,15311.3
21161.1,15297
21204.5,15273.8
21242.6,15242.6
21273.8,15204.5
21297,15161.1
21311.3,15114
21316.2,15065
21316.2,14694.4
23185,14694.4
23185,14805.6
23206.8,14914.8
23249.3,15017.6
23311.2,15110.1
23389.9,15188.8
23481.4,15250
23389.9,15311.2
23311.2,15389.9
23249.3,15482.4
23206.8,15585.2
23185,15694.4
23185,15805.6
23206.8,15914.8
23249.3,16017.6
23311.2,16110.1
23389.9,16188.8
23481.4,16250
23389.9,16311.2
23311.2,16389.9
23249.3,16482.4
23206.8,16585.2
23185,16694.4
23185,16805.6
23206.8,16914.8
23249.3,17017.6
23311.2,17110.1
23389.9,17188.8
23481.4,17250
23389.9,17311.2
23311.2,17389.9
23249.3,17482.4
23206.8,17585.2
23185,17694.4
23185,17805.6
23206.8,17914.8
23249.3,18017.6
23311.2,18110.1
23389.9,18188.8
23482.4,18250.7
23585.2,18293.2
23694.4,18315
23805.6,18315
23914.8,18293.2
24017.6,18250.7
24110.1,18188.8
24188.8,18110.1
24250.7,18017.6
24293.2,17914.8
24315,17805.6
24315,17694.4
24293.2,17585.2
24250.7,17482.4
24188.8,17389.9
24110.1,17311.2
24018.6,17250
24110.1,17188.8
24188.8,17110.1
24250.7,17017.6
24293.2,16914.8
24315,16805.6
24315,16694.4
24293.2,16585.2
24250.7,16482.4
24188.8,16389.9
24110.1,16311.2
24018.6,16250
24110.1,16188.8
24188.8,16110.1
24250.7,16017.6
24293.2,15914.8
24315,15805.6
24315,15694.4
24293.2,15585.2
24250.7,15482.4
24188.8,15389.9
24110.1,15311.2
24018.6,15250
24110.1,15188.8
24188.8,15110.1
24250.7,15017.6
24293.2,14914.8
24315,14805.6
24315,14694.4
24293.2,14585.2
24250.7,14482.4
24188.8,14389.9
24110.1,14311.2
24017.6,14249.3
23914.8,14206.8
23805.6,14185
23694.4,14185
23585.2,14206.8
23482.4,14249.3
23389.9,14311.2
23311.2,14389.9
23249.3,14482.4
23206.8,14585.2
23185,14694.4
21316.2,14694.4
21316.2,14435
21311.3,14386
21297,14338.9
21273.8,14295.5
21242.6,14257.4
21204.5,14226.2
21161.1,14203
21114,14188.7
21065,14183.8
20435,14183.8
20386,14188.7
20338.9,14203
20295.5,14226.2
20257.4,14257.4
20226.2,14295.5
20203,14338.9
20188.7,14386
20183.8,14435
15488.1,14435
16872.5,13050.7
16944.4,13065
17055.6,13065
17164.8,13043.2
17267.6,13000.7
17360.1,12938.8
17438.8,12860.1
17500.7,12767.6
17543.2,12664.8
17565,12555.6
17565,12444.4
17543.2,12335.2
17500.7,12232.4
17438.8,12139.9
17360.1,12061.2
17267.6,11999.3
17164.8,11956.8
17055.6,11935
16944.4,11935
16835.2,11956.8
16732.4,11999.3
16639.9,12061.2
16561.2,12139.9
16499.3,12232.4
16456.8,12335.2
16435,12444.4
16435,12555.6
16449.3,12627.5
9627.51,19449.3
9555.64,19435
9444.36,19435
9335.21,19456.8
9232.39,19499.3
9139.86,19561.2
9061.17,19639.9
8999.34,19732.4
8956.75,19835.2
8935.04,19944.4
8935.04,20055.6
8949.34,20127.5
8626.06,20450.8
8003.22,20450.8
7954.12,20377.3
7876.23,20299.4
7946.04,20242.1
10946,17242.1
10971.4,17221.4
11008.8,17175.8
11054.3,17120.3
11087.2,17058.7
11115.9,17005.1
11153.8,16880
11163.4,16782.6
11163.4,16782.6
11166.6,16750
11163.4,16717.4
11163.4,14547.5
11259.7,14598.9
11377.5,14634.7
11500,14646.7
11622.5,14634.7
11740.3,14598.9
11848.9,14540.9
11898.5,14500.2
11916.1,14533.3
11947.4,14571.3
11985.4,14602.6
12028.9,14625.8
12076,14640.1
12125,14644.9
12875,14644.9
12924,14640.1
12971.1,14625.8
13014.6,14602.6
13052.6,14571.3
13083.9,14533.3
13107.1,14489.8
13121.4,14442.7
13126.2,14393.7
13126.2,13606.3
13121.4,13557.3
13107.1,13510.2
13083.9,13466.7
13052.6,13428.7
13014.6,13397.4
12971.1,13374.2
12924,13359.9
12875,13355.1
12125,13355.1
12076,13359.9
12028.9,13374.2
11985.4,13397.4
11947.4,13428.7
11916.1,13466.7
11898.5,13499.8
11848.9,13459.1
11740.3,13401.1
11622.5,13365.3
11563.6,13359.5
12478.8,12444.4
14935,12444.4
14935,12555.6
14956.8,12664.8
14999.3,12767.6
15061.2,12860.1
15139.9,12938.8
15232.4,13000.7
15335.2,13043.2
15444.4,13065
15555.6,13065
15664.8,13043.2
15767.6,13000.7
15860.1,12938.8
15938.8,12860.1
16000.7,12767.6
16043.2,12664.8
16065,12555.6
16065,12444.4
16043.2,12335.2
16000.7,12232.4
15938.8,12139.9
15860.1,12061.2
15767.6,11999.3
15664.8,11956.8
15555.6,11935
15444.4,11935
15335.2,11956.8
15232.4,11999.3
15139.9,12061.2
15061.2,12139.9
14999.3,12232.4
14956.8,12335.2
14935,12444.4
12478.8,12444.4
13123.9,11799.2
17376.1,11799.2
17949.3,12372.5
17935,12444.4
17935,12555.6
17956.8,12664.8
17999.3,12767.6
18061.2,12860.1
18139.9,12938.8
18232.4,13000.7
18335.2,13043.2
18444.4,13065
18555.6,13065
18664.8,13043.2
18767.6,13000.7
18860.1,12938.8
18938.8,12860.1
19000.7,12767.6
19043.2,12664.8
19065,12555.6
19065,12444.4
19043.2,12335.2
19000.7,12232.4
18975.2,12194.4
19685,12194.4
19685,12305.6
19706.8,12414.8
19749.3,12517.6
19811.2,12610.1
19889.9,12688.8
19982.4,12750.7
20085.2,12793.2
20194.4,12815
20305.6,12815
20414.8,12793.2
20517.6,12750.7
20610.1,12688.8
20688.8,12610.1
20750.7,12517.6
20793.2,12414.8
20815,12305.6
20815,12194.4
23685,12194.4
23685,12305.6
23706.8,12414.8
23749.3,12517.6
23811.2,12610.1
23889.9,12688.8
23982.4,12750.7
24085.2,12793.2
24194.4,12815
24305.6,12815
24414.8,12793.2
24517.6,12750.7
24610.1,12688.8
24688.8,12610.1
24750.7,12517.6
24793.2,12414.8
24815,12305.6
24815,12194.4
24793.2,12085.2
24750.7,11982.4
24688.8,11889.9
24610.1,11811.2
24517.6,11749.3
24414.8,11706.8
24305.6,11685
24194.4,11685
24085.2,11706.8
23982.4,11749.3
23889.9,11811.2
23811.2,11889.9
23749.3,11982.4
23706.8,12085.2
23685,12194.4
20815,12194.4
20793.2,12085.2
20750.7,11982.4
20688.8,11889.9
20610.1,11811.2
20517.6,11749.3
20414.8,11706.8
20305.6,11685
20194.4,11685
20085.2,11706.8
19982.4,11749.3
19889.9,11811.2
19811.2,11889.9
19749.3,11982.4
19706.8,12085.2
19685,12194.4
18975.2,12194.4
18938.8,12139.9
18860.1,12061.2
18767.6,11999.3
18664.8,11956.8
18555.6,11935
18444.4,11935
18372.5,11949.3
17722,11298.8
17712.6,11287.4
17667,11250
17615.1,11222.2
17558.7,11205.1
17514.7,11200.8
17514.7,11200.8
17500,11199.3
17485.3,11200.8
13014.7,11200.8
13000,11199.3
12985.3,11200.8
12985.3,11200.8
12941.3,11205.1
12884.9,11222.2
12833,11250
12800,11277
12787.4,11287.4
12778,11298.8
10707.2,13369.6
10630,13346.2
10500,13333.4
10370,13346.2
10244.9,13384.1
10129.7,13445.7
10028.6,13528.6
9945.75,13629.7
9884.15,13744.9
9846.21,13870
9836.61,13967.4
9836.61,16475.2
7007.87,19304
6945.75,19379.7
6884.15,19494.9
6846.21,19620
6833.41,19750
6550,19750
6550,15084.6
6914.14,15084.6
6918.97,15133.7
6933.27,15180.8
6956.48,15224.2
6987.72,15262.3
7025.79,15293.5
7069.22,15316.7
7116.35,15331
7165.35,15335.9
7387.5,15334.6
7450,15272.1
7450,14800
7550,14800
7550,15272.1
7612.5,15334.6
7834.65,15335.9
7883.65,15331
7930.78,15316.7
7974.21,15293.5
8012.28,15262.3
8043.52,15224.2
8066.73,15180.8
8081.03,15133.7
8085.86,15084.6
8084.65,14862.5
8022.15,14800
7550,14800
7450,14800
6977.85,14800
6915.35,14862.5
6914.14,15084.6
6550,15084.6
6550,14415.4
6914.14,14415.4
6915.35,14637.5
6977.85,14700
7450,14700
7450,14692.1
7550,14692.1
7550,14700
8022.15,14700
8084.65,14637.5
8085.86,14415.4
8081.03,14366.3
8066.73,14319.2
8043.52,14275.8
8012.28,14237.7
7974.21,14206.5
7930.78,14183.3
7902.21,14174.6
7954.12,14122.7
8018.11,14026.9
8062.18,13920.5
8084.65,13807.6
8084.65,13692.4
8062.18,13579.5
8018.11,13473.1
7954.12,13377.3
7872.69,13295.9
7776.93,13231.9
7670.53,13187.8
7557.58,13165.4
7442.42,13165.4
7329.47,13187.8
7223.07,13231.9
7127.31,13295.9
7045.88,13377.3
6981.89,13473.1
6937.82,13579.5
6915.35,13692.4
6915.35,13807.6
6937.82,13920.5
6981.89,14026.9
7045.88,14122.7
7097.79,14174.6
7069.22,14183.3
7025.79,14206.5
6987.72,14237.7
6956.48,14275.8
6933.27,14319.2
6918.97,14366.3
6914.14,14415.4
6550,14415.4
6550,9856.3
15373.8,9856.3
15373.8,10643.7
15378.6,10692.7
15392.9,10739.8
15416.1,10783.3
15447.4,10821.3
15485.4,10852.6
15528.9,10875.8
15576,10890.1
15625,10894.9
16375,10894.9
16424,10890.1
16471.1,10875.8
16514.6,10852.6
16552.6,10821.3
16583.9,10783.3
16603.2,10747.2
16658.7,10791.7
16767.3,10848.3
16853.2,10876.2
16950,10829
16950,10300
16942.1,10300
16942.1,10200
16950,10200
16950,9671.03
17050,9671.03
17050,10200
17057.9,10200
17057.9,10300
17050,10300
17050,10829
17146.8,10876.2
17232.7,10848.3
17341.3,10791.7
17436.8,10715.1
17498,10642.2
17555.9,10712.8
17651.1,10790.9
17759.7,10848.9
17877.5,10884.7
18000,10896.7
18122.5,10884.7
18240.3,10848.9
18348.9,10790.9
18444.1,10712.8
18522.2,10617.6
18580.2,10509
18616,10391.2
18625,10299.4
18625,10200.6
18616,10108.8
18580.2,9990.96
18522.2,9882.39
18444.1,9787.22
18348.9,9709.12
18240.3,9651.08
18122.5,9615.34
18000,9603.28
17877.5,9615.34
17759.7,9651.08
17651.1,9709.12
17555.9,9787.22
17498,9857.83
17436.8,9784.92
17341.3,9708.28
17232.7,9651.74
17146.8,9623.79
17050,9671.03
16950,9671.03
16853.2,9623.79
16767.3,9651.74
16658.7,9708.28
16603.2,9752.84
16583.9,9716.73
16552.6,9678.67
16514.6,9647.43
16471.1,9624.21
16424,9609.92
16375,9605.09
15625,9605.09
15576,9609.92
15528.9,9624.21
15485.4,9647.43
15447.4,9678.67
15416.1,9716.73
15392.9,9760.17
15378.6,9807.29
15373.8,9856.3
6550,9856.3
6550,9447.01
20495.7,9447.01
20533.4,9551.11
20647.5,9606.58
20770.1,9638.73
20896.7,9646.35
21022.3,9629.12
21142.2,9587.71
21210.6,9551.11
21248.3,9447.01
20872,9070.71
20495.7,9447.01
6550,9447.01
6550,9024.64
20225.7,9024.64
20242.9,9150.27
20284.3,9270.11
20320.9,9338.6
20425,9376.3
20801.3,9000
20942.8,9000
21319.1,9376.3
21423.2,9338.6
21478.6,9224.58
21510.8,9101.93
21518.4,8975.36
21501.2,8849.73
21459.8,8729.89
21423.2,8661.4
21319.1,8623.7
20942.8,9000
20801.3,9000
20425,8623.7
20320.9,8661.4
20265.5,8775.42
20233.3,8898.07
20225.7,9024.64
6550,9024.64
6550,8552.99
20495.7,8552.99
20872,8929.29
21195,8606.3
21605.1,8606.3
21605.1,9393.7
21609.9,9442.71
21624.2,9489.83
21647.4,9533.27
21678.7,9571.33
21716.7,9602.57
21760.2,9625.79
21807.3,9640.08
21856.3,9644.91
22643.7,9644.91
22692.7,9640.08
22739.8,9625.79
22783.3,9602.57
22821.3,9571.33
22852.6,9533.27
22875.8,9489.83
22890.1,9442.71
22894.9,9393.7
22894.9,8606.3
22890.1,8557.29
22875.8,8510.17
22852.6,8466.73
22821.3,8428.67
22783.3,8397.43
22739.8,8374.21
22692.7,8359.92
22643.7,8355.09
21856.3,8355.09
21807.3,8359.92
21760.2,8374.21
21716.7,8397.43
21678.7,8428.67
21647.4,8466.73
21624.2,8510.17
21609.9,8557.29
21605.1,8606.3
21195,8606.3
21248.3,8552.99
21210.6,8448.89
21096.6,8393.42
20974,8361.27
20847.4,8353.65
20721.8,8370.88
20601.9,8412.29
20533.4,8448.89
20495.7,8552.99
6550,8552.99
6550,6550
25700,6550
Z" /> 
</g>
</g> 
</svg>
