<?xml version="1.0" standalone="no"?>
 <!DOCTYPE svg PUBLIC "-//W3C//DTD SVG 1.1//EN" 
 "http://www.w3.org/Graphics/SVG/1.1/DTD/svg11.dtd"> 
<svg xmlns="http://www.w3.org/2000/svg" version="1.1" 
    width="29.7002cm" height="21.0007cm" viewBox="0 0 116930 82680">
<title>SVG Picture created as Radio-Power-F_SilkS.svg date 2020/04/23 17:15:58 </title>
  <desc>Picture generated by PCBNEW </desc>
<g style="fill:#000000; fill-opacity:1;stroke:#000000; stroke-opacity:1;
stroke-linecap:round; stroke-linejoin:round;"
 transform="translate(0 0) scale(1 1)">
</g>
<g style="fill:#000000; fill-opacity:0.0; 
stroke:#000000; stroke-width:-0.000393701; stroke-opacity:1; 
stroke-linecap:round; stroke-linejoin:round;">
</g>
<g style="fill:#000000; fill-opacity:0.0; 
stroke:#000000; stroke-width:47.2441; stroke-opacity:1; 
stroke-linecap:round; stroke-linejoin:round;">
<path d="M23293 14226
L22643 14226
" />
<path d="M23293 18273
L23293 14226
" />
<path d="M21206 18273
L23293 18273
" />
<path d="M21206 14226
L21206 18273
" />
<path d="M21856 14226
L21206 14226
" />
<path d="M21856.3 14226.4 A393.701 393.701 0.0 0 0 22643.7 14226.4" />
<path d="M10771 15287
L10771 14692
" />
<path d="M12228 15287
L12228 14692
" />
<path d="M13515 14692
L9484 14692
" />
<path d="M9484 15287
L9484 13460
" />
<path d="M13515 15287
L13515 13460
" />
<path d="M13515 13460
L9484 13460
" />
<path d="M13515 15287
L9484 15287
" />
<path d="M23840 12250
L23537 12250
" />
<path d="M20659 12250
L20962 12250
" />
<path d="M23537 11710
L20962 11710
" />
<path d="M23537 12789
L23537 11710
" />
<path d="M20962 12789
L23537 12789
" />
<path d="M20962 11710
L20962 12789
" />
<path d="M23840 20250
L23537 20250
" />
<path d="M20659 20250
L20962 20250
" />
<path d="M23537 19710
L20962 19710
" />
<path d="M23537 20789
L23537 19710
" />
<path d="M20962 20789
L23537 20789
" />
<path d="M20962 19710
L20962 20789
" />
<path d="M18500 12909
L18500 13212
" />
<path d="M18500 16090
L18500 15787
" />
<path d="M17960 13212
L17960 15787
" />
<path d="M19039 13212
L17960 13212
" />
<path d="M19039 15787
L19039 13212
" />
<path d="M17960 15787
L19039 15787
" />
<path d="M18590 20250
L18287 20250
" />
<path d="M15409 20250
L15712 20250
" />
<path d="M18287 19710
L15712 19710
" />
<path d="M18287 20789
L18287 19710
" />
<path d="M15712 20789
L18287 20789
" />
<path d="M15712 19710
L15712 20789
" />
<path d="M17000 12909
L17000 13212
" />
<path d="M17000 16090
L17000 15787
" />
<path d="M16460 13212
L16460 15787
" />
<path d="M17539 13212
L16460 13212
" />
<path d="M17539 15787
L17539 13212
" />
<path d="M16460 15787
L17539 15787
" />
<path d="M15500 16090
L15500 15787
" />
<path d="M15500 12909
L15500 13212
" />
<path d="M16039 15787
L16039 13212
" />
<path d="M14960 15787
L16039 15787
" />
<path d="M14960 13212
L14960 15787
" />
<path d="M16039 13212
L14960 13212
" />
<path d="M18590 21750
L18287 21750
" />
<path d="M15409 21750
L15712 21750
" />
<path d="M18287 21210
L15712 21210
" />
<path d="M18287 22289
L18287 21210
" />
<path d="M15712 22289
L18287 22289
" />
<path d="M15712 21210
L15712 22289
" />
<path d="M9909 21750
L10212 21750
" />
<path d="M13090 21750
L12787 21750
" />
<path d="M10212 22289
L12787 22289
" />
<path d="M10212 21210
L10212 22289
" />
<path d="M12787 21210
L10212 21210
" />
<path d="M12787 22289
L12787 21210
" />
<path d="M9909 20000
L10212 20000
" />
<path d="M13090 20000
L12787 20000
" />
<path d="M10212 20539
L12787 20539
" />
<path d="M10212 19460
L10212 20539
" />
<path d="M12787 19460
L10212 19460
" />
<path d="M12787 20539
L12787 19460
" />
<path d="M8023 15273
L7500 15273
" />
<path d="M8023 14750
L8023 15273
" />
<path d="M8023 14250
L6976 14250
" />
<path d="M6976 14250
L6976 13226
" />
<path d="M8023 14250
L8023 13226
" />
<path d="M8023 13226
L6976 13226
" />
<path d="M8023 22273
L7500 22273
" />
<path d="M8023 21750
L8023 22273
" />
<path d="M8023 21250
L6976 21250
" />
<path d="M6976 21250
L6976 19226
" />
<path d="M8023 21250
L8023 19226
" />
<path d="M8023 19226
L6976 19226
" />
<path d="M23521 10328
L23521 9935
" />
<path d="M23718 10131
L23324 10131
" />
<path d="M19560 9235
L19560 8764
" />
<path d="M19576 9339
L19576 8660
" />
<path d="M19592 9418
L19592 8581
" />
<path d="M19607 9484
L19607 8515
" />
<path d="M19623 9542
L19623 8457
" />
<path d="M19639 9594
L19639 8405
" />
<path d="M19655 9641
L19655 8358
" />
<path d="M19670 9685
L19670 8314
" />
<path d="M19686 9726
L19686 8273
" />
<path d="M19702 9765
L19702 8234
" />
<path d="M19718 9801
L19718 8198
" />
<path d="M19733 9836
L19733 8163
" />
<path d="M19749 9869
L19749 8130
" />
<path d="M19765 9901
L19765 8098
" />
<path d="M19781 9931
L19781 8068
" />
<path d="M19796 9960
L19796 8039
" />
<path d="M19812 9988
L19812 8011
" />
<path d="M19828 10015
L19828 7984
" />
<path d="M19844 10041
L19844 7958
" />
<path d="M19859 10066
L19859 7933
" />
<path d="M19875 10090
L19875 7909
" />
<path d="M19891 10114
L19891 7885
" />
<path d="M19907 10137
L19907 7862
" />
<path d="M19922 10159
L19922 7840
" />
<path d="M19938 10181
L19938 7818
" />
<path d="M19954 10202
L19954 7797
" />
<path d="M19970 10222
L19970 7777
" />
<path d="M19985 10242
L19985 7757
" />
<path d="M20001 10262
L20001 7737
" />
<path d="M20017 10281
L20017 7718
" />
<path d="M20033 10299
L20033 7700
" />
<path d="M20048 10317
L20048 7682
" />
<path d="M20064 10335
L20064 7664
" />
<path d="M20080 10352
L20080 7647
" />
<path d="M20096 10369
L20096 7630
" />
<path d="M20111 10385
L20111 7614
" />
<path d="M20127 10401
L20127 7598
" />
<path d="M20143 10417
L20143 7582
" />
<path d="M20159 10433
L20159 7566
" />
<path d="M20174 10448
L20174 7551
" />
<path d="M20190 10462
L20190 7537
" />
<path d="M20206 10477
L20206 7522
" />
<path d="M20222 10491
L20222 7508
" />
<path d="M20237 10505
L20237 7494
" />
<path d="M20253 10518
L20253 7481
" />
<path d="M20269 10532
L20269 7467
" />
<path d="M20285 10545
L20285 7454
" />
<path d="M20300 10557
L20300 7442
" />
<path d="M20316 10570
L20316 7429
" />
<path d="M20332 10582
L20332 7417
" />
<path d="M20348 10594
L20348 7405
" />
<path d="M20363 10606
L20363 7393
" />
<path d="M20379 10618
L20379 7381
" />
<path d="M20395 8511
L20395 7370
" />
<path d="M20395 10629
L20395 9488
" />
<path d="M20411 8511
L20411 7359
" />
<path d="M20411 10640
L20411 9488
" />
<path d="M20426 8511
L20426 7348
" />
<path d="M20426 10651
L20426 9488
" />
<path d="M20442 8511
L20442 7338
" />
<path d="M20442 10661
L20442 9488
" />
<path d="M20458 8511
L20458 7327
" />
<path d="M20458 10672
L20458 9488
" />
<path d="M20474 8511
L20474 7317
" />
<path d="M20474 10682
L20474 9488
" />
<path d="M20489 8511
L20489 7307
" />
<path d="M20489 10692
L20489 9488
" />
<path d="M20505 8511
L20505 7298
" />
<path d="M20505 10701
L20505 9488
" />
<path d="M20521 8511
L20521 7288
" />
<path d="M20521 10711
L20521 9488
" />
<path d="M20537 8511
L20537 7279
" />
<path d="M20537 10720
L20537 9488
" />
<path d="M20552 8511
L20552 7269
" />
<path d="M20552 10730
L20552 9488
" />
<path d="M20568 8511
L20568 7261
" />
<path d="M20568 10738
L20568 9488
" />
<path d="M20584 8511
L20584 7251
" />
<path d="M20584 10748
L20584 9488
" />
<path d="M20600 8511
L20600 7243
" />
<path d="M20600 10756
L20600 9488
" />
<path d="M20615 8511
L20615 7235
" />
<path d="M20615 10764
L20615 9488
" />
<path d="M20631 8511
L20631 7226
" />
<path d="M20631 10773
L20631 9488
" />
<path d="M20647 8511
L20647 7218
" />
<path d="M20647 10781
L20647 9488
" />
<path d="M20662 8511
L20662 7210
" />
<path d="M20662 10789
L20662 9488
" />
<path d="M20678 8511
L20678 7203
" />
<path d="M20678 10796
L20678 9488
" />
<path d="M20694 8511
L20694 7195
" />
<path d="M20694 10804
L20694 9488
" />
<path d="M20710 8511
L20710 7187
" />
<path d="M20710 10812
L20710 9488
" />
<path d="M20725 8511
L20725 7180
" />
<path d="M20725 10819
L20725 9488
" />
<path d="M20741 8511
L20741 7173
" />
<path d="M20741 10826
L20741 9488
" />
<path d="M20757 8511
L20757 7166
" />
<path d="M20757 10833
L20757 9488
" />
<path d="M20773 8511
L20773 7159
" />
<path d="M20773 10840
L20773 9488
" />
<path d="M20788 8511
L20788 7153
" />
<path d="M20788 10846
L20788 9488
" />
<path d="M20804 8511
L20804 7146
" />
<path d="M20804 10853
L20804 9488
" />
<path d="M20820 8511
L20820 7140
" />
<path d="M20820 10859
L20820 9488
" />
<path d="M20836 8511
L20836 7134
" />
<path d="M20836 10865
L20836 9488
" />
<path d="M20851 8511
L20851 7128
" />
<path d="M20851 10871
L20851 9488
" />
<path d="M20867 8511
L20867 7122
" />
<path d="M20867 10877
L20867 9488
" />
<path d="M20883 8511
L20883 7116
" />
<path d="M20883 10883
L20883 9488
" />
<path d="M20899 8511
L20899 7111
" />
<path d="M20899 10888
L20899 9488
" />
<path d="M20914 8511
L20914 7105
" />
<path d="M20914 10894
L20914 9488
" />
<path d="M20930 8511
L20930 7100
" />
<path d="M20930 10899
L20930 9488
" />
<path d="M20946 8511
L20946 7095
" />
<path d="M20946 10904
L20946 9488
" />
<path d="M20962 8511
L20962 7090
" />
<path d="M20962 10909
L20962 9488
" />
<path d="M20977 8511
L20977 7085
" />
<path d="M20977 10914
L20977 9488
" />
<path d="M20993 8511
L20993 7081
" />
<path d="M20993 10918
L20993 9488
" />
<path d="M21009 8511
L21009 7076
" />
<path d="M21009 10923
L21009 9488
" />
<path d="M21025 8511
L21025 7072
" />
<path d="M21025 10927
L21025 9488
" />
<path d="M21040 8511
L21040 7068
" />
<path d="M21040 10931
L21040 9488
" />
<path d="M21056 8511
L21056 7063
" />
<path d="M21056 10936
L21056 9488
" />
<path d="M21072 8511
L21072 7059
" />
<path d="M21072 10940
L21072 9488
" />
<path d="M21088 8511
L21088 7055
" />
<path d="M21088 10944
L21088 9488
" />
<path d="M21103 8511
L21103 7052
" />
<path d="M21103 10947
L21103 9488
" />
<path d="M21119 8511
L21119 7048
" />
<path d="M21119 10951
L21119 9488
" />
<path d="M21135 8511
L21135 7045
" />
<path d="M21135 10954
L21135 9488
" />
<path d="M21151 8511
L21151 7041
" />
<path d="M21151 10958
L21151 9488
" />
<path d="M21166 8511
L21166 7038
" />
<path d="M21166 10961
L21166 9488
" />
<path d="M21182 8511
L21182 7035
" />
<path d="M21182 10964
L21182 9488
" />
<path d="M21198 8511
L21198 7032
" />
<path d="M21198 10967
L21198 9488
" />
<path d="M21214 8511
L21214 7029
" />
<path d="M21214 10970
L21214 9488
" />
<path d="M21229 8511
L21229 7027
" />
<path d="M21229 10972
L21229 9488
" />
<path d="M21245 8511
L21245 7024
" />
<path d="M21245 10975
L21245 9488
" />
<path d="M21261 8511
L21261 7022
" />
<path d="M21261 10977
L21261 9488
" />
<path d="M21277 8511
L21277 7019
" />
<path d="M21277 10980
L21277 9488
" />
<path d="M21293 8511
L21293 7017
" />
<path d="M21293 10982
L21293 9488
" />
<path d="M21309 8511
L21309 7015
" />
<path d="M21309 10984
L21309 9488
" />
<path d="M21324 8511
L21324 7013
" />
<path d="M21324 10986
L21324 9488
" />
<path d="M21340 8511
L21340 7011
" />
<path d="M21340 10988
L21340 9488
" />
<path d="M21356 8511
L21356 7010
" />
<path d="M21356 10989
L21356 9488
" />
<path d="M21372 10991
L21372 7008
" />
<path d="M21387 10992
L21387 7007
" />
<path d="M21403 10994
L21403 7005
" />
<path d="M21419 10995
L21419 7004
" />
<path d="M21435 10996
L21435 7003
" />
<path d="M21450 10997
L21450 7002
" />
<path d="M21466 10998
L21466 7001
" />
<path d="M21482 10998
L21482 7001
" />
<path d="M21498 10999
L21498 7000
" />
<path d="M21513 10999
L21513 7000
" />
<path d="M21529 11000
L21529 7000
" />
<path d="M21545 11000
L21545 7000
" />
<path d="M21561 11000
L21561 7000
" />
<circle cx="21561" cy="9000" r="2015.75" /> 
<path d="M17728 8962
L17728 9557
" />
<path d="M16271 8962
L16271 9557
" />
<path d="M14984 9557
L19015 9557
" />
<path d="M19015 8962
L19015 10789
" />
<path d="M14984 8962
L14984 10789
" />
<path d="M14984 10789
L19015 10789
" />
<path d="M14984 8962
L19015 8962
" />
<path d="M16771 17541
L16771 18958
" />
<path d="M16776.2 18973.8 A1023.62 1023.62 0.0 0 0 18523.6 18250" />
<path d="M18523.6 18250 A1023.62 1023.62 0.0 0 0 16776.2 17526.2" />
<path d="M13771 17541
L13771 18958
" />
<path d="M13776.2 18973.8 A1023.62 1023.62 0.0 0 0 15523.6 18250" />
<path d="M15523.6 18250 A1023.62 1023.62 0.0 0 0 13776.2 17526.2" />
</g>
<g style="fill:#000000; fill-opacity:0.0; 
stroke:#000000; stroke-width:59.0551; stroke-opacity:1; 
stroke-linecap:round; stroke-linejoin:round;">
<text x="22250" y="14029.5"
textLength="787.402" font-size="524.934" lengthAdjust="spacingAndGlyphs"
text-anchor="middle" opacity="0">U2</text>
<path d="M21950 13617
L21950 13935
L21968 13973
L21987 13992
L22025 14010
L22100 14010
L22137 13992
L22156 13973
L22175 13935
L22175 13617
" />
<path d="M22343 13654
L22362 13635
L22399 13617
L22493 13617
L22531 13635
L22549 13654
L22568 13692
L22568 13729
L22549 13785
L22324 14010
L22568 14010
" />
<text x="11500" y="15878"
textLength="864.173" font-size="524.934" lengthAdjust="spacingAndGlyphs"
text-anchor="middle" opacity="0">Q2</text>
<path d="M11462 15896
L11425 15877
L11387 15840
L11331 15784
L11293 15765
L11256 15765
" />
<path d="M11275 15859
L11237 15840
L11200 15802
L11181 15727
L11181 15596
L11200 15521
L11237 15484
L11275 15465
L11350 15465
L11387 15484
L11425 15521
L11443 15596
L11443 15727
L11425 15802
L11387 15840
L11350 15859
L11275 15859
" />
<path d="M11593 15502
L11612 15484
L11649 15465
L11743 15465
L11781 15484
L11799 15502
L11818 15540
L11818 15577
L11799 15634
L11574 15859
L11818 15859
" />
<text x="22250" y="11513.8"
textLength="845.426" font-size="524.934" lengthAdjust="spacingAndGlyphs"
text-anchor="middle" opacity="0">R9</text>
<path d="M22184 11495
L22053 11307
" />
<path d="M21959 11495
L21959 11101
L22109 11101
L22146 11120
L22165 11138
L22184 11176
L22184 11232
L22165 11270
L22146 11288
L22109 11307
L21959 11307
" />
<path d="M22371 11495
L22446 11495
L22484 11476
L22503 11457
L22540 11401
L22559 11326
L22559 11176
L22540 11138
L22521 11120
L22484 11101
L22409 11101
L22371 11120
L22353 11138
L22334 11176
L22334 11270
L22353 11307
L22371 11326
L22409 11345
L22484 11345
L22521 11326
L22540 11307
L22559 11270
" />
<text x="22250" y="19513.8"
textLength="845.426" font-size="524.934" lengthAdjust="spacingAndGlyphs"
text-anchor="middle" opacity="0">R8</text>
<path d="M22184 19495
L22053 19307
" />
<path d="M21959 19495
L21959 19101
L22109 19101
L22146 19120
L22165 19138
L22184 19176
L22184 19232
L22165 19270
L22146 19288
L22109 19307
L21959 19307
" />
<path d="M22409 19270
L22371 19251
L22353 19232
L22334 19195
L22334 19176
L22353 19138
L22371 19120
L22409 19101
L22484 19101
L22521 19120
L22540 19138
L22559 19176
L22559 19195
L22540 19232
L22521 19251
L22484 19270
L22409 19270
L22371 19288
L22353 19307
L22334 19345
L22334 19420
L22353 19457
L22371 19476
L22409 19495
L22484 19495
L22521 19476
L22540 19457
L22559 19420
L22559 19345
L22540 19307
L22521 19288
L22484 19270
" />
<g transform="rotate(-90 17566.9 14500)">
<text x="17566.9" y="14696.9"
textLength="845.426" font-size="524.934" lengthAdjust="spacingAndGlyphs"
text-anchor="middle" opacity="0">R7</text>
</g>
<path d="M17745 14565
L17557 14696
" />
<path d="M17745 14790
L17351 14790
L17351 14640
L17370 14603
L17388 14584
L17426 14565
L17482 14565
L17520 14584
L17538 14603
L17557 14640
L17557 14790
" />
<path d="M17351 14434
L17351 14171
L17745 14340
" />
<text x="17000" y="19513.8"
textLength="845.426" font-size="524.934" lengthAdjust="spacingAndGlyphs"
text-anchor="middle" opacity="0">R6</text>
<path d="M16934 19495
L16803 19307
" />
<path d="M16709 19495
L16709 19101
L16859 19101
L16896 19120
L16915 19138
L16934 19176
L16934 19232
L16915 19270
L16896 19288
L16859 19307
L16709 19307
" />
<path d="M17271 19101
L17196 19101
L17159 19120
L17140 19138
L17103 19195
L17084 19270
L17084 19420
L17103 19457
L17121 19476
L17159 19495
L17234 19495
L17271 19476
L17290 19457
L17309 19420
L17309 19326
L17290 19288
L17271 19270
L17234 19251
L17159 19251
L17121 19270
L17103 19288
L17084 19326
" />
<g transform="rotate(-90 16066.9 14500)">
<text x="16066.9" y="14696.9"
textLength="845.426" font-size="524.934" lengthAdjust="spacingAndGlyphs"
text-anchor="middle" opacity="0">R5</text>
</g>
<path d="M16245 14565
L16057 14696
" />
<path d="M16245 14790
L15851 14790
L15851 14640
L15870 14603
L15888 14584
L15926 14565
L15982 14565
L16020 14584
L16038 14603
L16057 14640
L16057 14790
" />
<path d="M15851 14209
L15851 14396
L16038 14415
L16020 14396
L16001 14359
L16001 14265
L16020 14228
L16038 14209
L16076 14190
L16170 14190
L16207 14209
L16226 14228
L16245 14265
L16245 14359
L16226 14396
L16207 14415
" />
<g transform="rotate(-90 16433.1 14500)">
<text x="16433.1" y="14696.9"
textLength="845.426" font-size="524.934" lengthAdjust="spacingAndGlyphs"
text-anchor="middle" opacity="0">R4</text>
</g>
<path d="M16611 14565
L16423 14696
" />
<path d="M16611 14790
L16217 14790
L16217 14640
L16236 14603
L16254 14584
L16292 14565
L16348 14565
L16386 14584
L16404 14603
L16423 14640
L16423 14790
" />
<path d="M16348 14228
L16611 14228
" />
<path d="M16198 14321
L16479 14415
L16479 14171
" />
<text x="17000" y="21013.8"
textLength="845.426" font-size="524.934" lengthAdjust="spacingAndGlyphs"
text-anchor="middle" opacity="0">R3</text>
<path d="M16934 20995
L16803 20807
" />
<path d="M16709 20995
L16709 20601
L16859 20601
L16896 20620
L16915 20638
L16934 20676
L16934 20732
L16915 20770
L16896 20788
L16859 20807
L16709 20807
" />
<path d="M17065 20601
L17309 20601
L17178 20751
L17234 20751
L17271 20770
L17290 20788
L17309 20826
L17309 20920
L17290 20957
L17271 20976
L17234 20995
L17121 20995
L17084 20976
L17065 20957
" />
<text x="11500" y="22879.9"
textLength="845.426" font-size="524.934" lengthAdjust="spacingAndGlyphs"
text-anchor="middle" opacity="0">R2</text>
<path d="M11434 22861
L11303 22673
" />
<path d="M11209 22861
L11209 22467
L11359 22467
L11396 22486
L11415 22504
L11434 22542
L11434 22598
L11415 22636
L11396 22654
L11359 22673
L11209 22673
" />
<path d="M11584 22504
L11603 22486
L11640 22467
L11734 22467
L11771 22486
L11790 22504
L11809 22542
L11809 22579
L11790 22636
L11565 22861
L11809 22861
" />
<text x="11500" y="21129.9"
textLength="845.426" font-size="524.934" lengthAdjust="spacingAndGlyphs"
text-anchor="middle" opacity="0">R1</text>
<path d="M11434 21111
L11303 20923
" />
<path d="M11209 21111
L11209 20717
L11359 20717
L11396 20736
L11415 20754
L11434 20792
L11434 20848
L11415 20886
L11396 20904
L11359 20923
L11209 20923
" />
<path d="M11809 21111
L11584 21111
" />
<path d="M11696 21111
L11696 20717
L11659 20773
L11621 20811
L11584 20829
" />
<text x="7500" y="15864.2"
textLength="751.687" font-size="524.934" lengthAdjust="spacingAndGlyphs"
text-anchor="middle" opacity="0">J2</text>
<path d="M7368 15451
L7368 15732
L7350 15789
L7312 15826
L7256 15845
L7218 15845
" />
<path d="M7537 15489
L7556 15470
L7593 15451
L7687 15451
L7724 15470
L7743 15489
L7762 15526
L7762 15564
L7743 15620
L7518 15845
L7762 15845
" />
<text x="7500" y="22864.2"
textLength="751.687" font-size="524.934" lengthAdjust="spacingAndGlyphs"
text-anchor="middle" opacity="0">J1</text>
<path d="M7368 22451
L7368 22732
L7350 22789
L7312 22826
L7256 22845
L7218 22845
" />
<path d="M7762 22845
L7537 22845
" />
<path d="M7649 22845
L7649 22451
L7612 22507
L7574 22545
L7537 22564
" />
<text x="21561" y="11657.5"
textLength="845.426" font-size="524.934" lengthAdjust="spacingAndGlyphs"
text-anchor="middle" opacity="0">C2</text>
<path d="M21495 11601
L21476 11619
L21420 11638
L21382 11638
L21326 11619
L21289 11582
L21270 11544
L21251 11470
L21251 11413
L21270 11338
L21289 11301
L21326 11263
L21382 11245
L21420 11245
L21476 11263
L21495 11282
" />
<path d="M21645 11282
L21664 11263
L21701 11245
L21795 11245
L21832 11263
L21851 11282
L21870 11320
L21870 11357
L21851 11413
L21626 11638
L21870 11638
" />
<text x="17000" y="8765.75"
textLength="864.173" font-size="524.934" lengthAdjust="spacingAndGlyphs"
text-anchor="middle" opacity="0">U1</text>
<path d="M16700 8353
L16700 8672
L16718 8709
L16737 8728
L16775 8747
L16850 8747
L16887 8728
L16906 8709
L16925 8672
L16925 8353
" />
<path d="M17318 8747
L17093 8747
" />
<path d="M17206 8747
L17206 8353
L17168 8409
L17131 8447
L17093 8465
" />
<g transform="rotate(-90 18901.6 18250)">
<text x="18901.6" y="18446.9"
textLength="864.173" font-size="524.934" lengthAdjust="spacingAndGlyphs"
text-anchor="middle" opacity="0">Q3</text>
</g>
<path d="M19117 18287
L19098 18324
L19060 18362
L19004 18418
L18985 18456
L18985 18493
" />
<path d="M19079 18474
L19060 18512
L19023 18549
L18948 18568
L18817 18568
L18742 18549
L18704 18512
L18685 18474
L18685 18399
L18704 18362
L18742 18324
L18817 18306
L18948 18306
L19023 18324
L19060 18362
L19079 18399
L19079 18474
" />
<path d="M18685 18175
L18685 17931
L18835 18062
L18835 18006
L18854 17968
L18873 17950
L18910 17931
L19004 17931
L19042 17950
L19060 17968
L19079 18006
L19079 18118
L19060 18156
L19042 18175
" />
<g transform="rotate(-90 15901.6 18250)">
<text x="15901.6" y="18446.9"
textLength="864.173" font-size="524.934" lengthAdjust="spacingAndGlyphs"
text-anchor="middle" opacity="0">Q1</text>
</g>
<path d="M16117 18287
L16098 18324
L16060 18362
L16004 18418
L15985 18456
L15985 18493
" />
<path d="M16079 18474
L16060 18512
L16023 18549
L15948 18568
L15817 18568
L15742 18549
L15704 18512
L15685 18474
L15685 18399
L15704 18362
L15742 18324
L15817 18306
L15948 18306
L16023 18324
L16060 18362
L16079 18399
L16079 18474
" />
<path d="M16079 17931
L16079 18156
" />
<path d="M16079 18043
L15685 18043
L15742 18081
L15779 18118
L15798 18156
" />
<g >
</g>
</g> 
</svg>
